<svg width="235" height="170" viewBox="0 0 235 170" fill="none" xmlns="http://www.w3.org/2000/svg">
<path d="M14.1465 76.6055C11.9062 76.6055 9.85775 76.0404 8.00098 74.9102C6.16439 73.7799 4.70117 72.2663 3.61133 70.3691C2.54167 68.4518 2.00684 66.3226 2.00684 63.9814L2.06738 44.6367C2.06738 42.3359 2.59212 40.2572 3.6416 38.4004C4.69108 36.5234 6.13411 35.0199 7.9707 33.8896C9.82747 32.7393 11.8861 32.1641 14.1465 32.1641C16.4473 32.1641 18.4958 32.7191 20.292 33.8291C22.1084 34.9391 23.5514 36.4427 24.6211 38.3398C25.7109 40.2168 26.2559 42.3158 26.2559 44.6367V47.4824C26.2559 47.6439 26.1751 47.7246 26.0137 47.7246H19.0508C18.8893 47.7246 18.8086 47.6439 18.8086 47.4824V44.6367C18.8086 43.2643 18.3646 42.0837 17.4766 41.0947C16.5885 40.1058 15.4785 39.6113 14.1465 39.6113C12.6732 39.6113 11.543 40.1159 10.7559 41.125C9.96875 42.1341 9.5752 43.3047 9.5752 44.6367V63.9814C9.5752 65.4951 10.0192 66.7363 10.9072 67.7051C11.7952 68.6536 12.875 69.1279 14.1465 69.1279C15.4785 69.1279 16.5885 68.6032 17.4766 67.5537C18.3646 66.484 18.8086 65.2933 18.8086 63.9814V61.1055C18.8086 60.944 18.8893 60.8633 19.0508 60.8633H26.0742C26.2357 60.8633 26.3164 60.944 26.3164 61.1055V63.9814C26.3164 66.3024 25.7715 68.4215 24.6816 70.3389C23.5716 72.236 22.1084 73.7598 20.292 74.9102C18.4756 76.0404 16.4271 76.6055 14.1465 76.6055ZM38.0928 76H31.0693C30.9079 76 30.8271 75.8991 30.8271 75.6973L30.9482 33.1025C30.9482 32.9411 31.029 32.8604 31.1904 32.8604H43.7236C45.9639 32.8604 48.0225 33.4053 49.8994 34.4951C51.7764 35.585 53.2699 37.0482 54.3799 38.8848C55.5101 40.7214 56.0752 42.8001 56.0752 45.1211C56.0752 46.6348 55.8431 48.0072 55.3789 49.2383C54.9147 50.4694 54.3698 51.5088 53.7441 52.3564C53.1387 53.2041 52.5837 53.8298 52.0791 54.2334C54.3193 56.7158 55.4395 59.6322 55.4395 62.9824L55.5 75.6973C55.5 75.8991 55.3991 76 55.1973 76H48.1738C48.0124 76 47.9316 75.9395 47.9316 75.8184V62.9824C47.9316 61.4889 47.4069 60.1973 46.3574 59.1074C45.3079 58.0176 44.0163 57.4727 42.4824 57.4727H38.3955L38.335 75.6973C38.335 75.8991 38.2542 76 38.0928 76ZM43.7236 40.2773H38.3955V50.0254H43.7236C44.9951 50.0254 46.1253 49.5511 47.1143 48.6025C48.1234 47.654 48.6279 46.4935 48.6279 45.1211C48.6279 43.8092 48.1436 42.679 47.1748 41.7305C46.2061 40.7617 45.0557 40.2773 43.7236 40.2773ZM81.0205 76H60.9795C60.818 76 60.7373 75.8991 60.7373 75.6973L60.7979 33.1025C60.7979 32.9411 60.8786 32.8604 61.04 32.8604H80.96C81.1214 32.8604 81.2021 32.9613 81.2021 33.1631V40.0957C81.2021 40.2572 81.1214 40.3379 80.96 40.3379H68.2451V50.0254H80.96C81.1214 50.0254 81.2021 50.1061 81.2021 50.2676L81.2627 57.291C81.2627 57.4525 81.182 57.5332 81.0205 57.5332H68.2451V68.3711H81.0205C81.182 68.3711 81.2627 68.472 81.2627 68.6738V75.7578C81.2627 75.9193 81.182 76 81.0205 76ZM107.056 76H87.0146C86.8532 76 86.7725 75.8991 86.7725 75.6973L86.833 33.1025C86.833 32.9411 86.9137 32.8604 87.0752 32.8604H106.995C107.157 32.8604 107.237 32.9613 107.237 33.1631V40.0957C107.237 40.2572 107.157 40.3379 106.995 40.3379H94.2803V50.0254H106.995C107.157 50.0254 107.237 50.1061 107.237 50.2676L107.298 57.291C107.298 57.4525 107.217 57.5332 107.056 57.5332H94.2803V68.3711H107.056C107.217 68.3711 107.298 68.472 107.298 68.6738V75.7578C107.298 75.9193 107.217 76 107.056 76ZM120.073 76H113.05C112.888 76 112.808 75.8991 112.808 75.6973L112.929 33.1631C112.929 32.9613 113.009 32.8604 113.171 32.8604H120.134C120.295 32.8604 120.376 32.9613 120.376 33.1631V47.8457L130.094 33.1025C130.255 32.9411 130.407 32.8604 130.548 32.8604H137.662C137.844 32.8604 137.884 32.9411 137.783 33.1025L127.066 50.207L139.085 75.7578C139.186 75.9193 139.085 76 138.782 76H131.214C131.012 76 130.891 75.9193 130.851 75.7578L122.465 57.5332L120.315 60.9238V75.6973C120.315 75.8991 120.235 76 120.073 76ZM152.405 76.6055C150.205 76.6055 148.177 76.0404 146.32 74.9102C144.484 73.7799 143.01 72.2764 141.9 70.3994C140.811 68.5023 140.266 66.4235 140.266 64.1631V61.3174C140.266 61.0954 140.367 60.9844 140.568 60.9844H147.531C147.693 60.9844 147.773 61.0954 147.773 61.3174V64.1631C147.773 65.5153 148.228 66.6859 149.136 67.6748C150.044 68.6436 151.134 69.1279 152.405 69.1279C153.697 69.1279 154.797 68.6335 155.705 67.6445C156.613 66.6354 157.067 65.4749 157.067 64.1631C157.067 62.6494 156.078 61.3275 154.101 60.1973C153.778 59.9954 153.354 59.7533 152.829 59.4707C152.325 59.168 151.719 58.8249 151.013 58.4414C150.306 58.0579 149.62 57.6846 148.954 57.3213C148.288 56.9378 147.642 56.5745 147.017 56.2314C144.756 54.8994 143.071 53.2344 141.961 51.2363C140.871 49.2181 140.326 46.9577 140.326 44.4551C140.326 42.1543 140.891 40.0755 142.021 38.2188C143.152 36.3822 144.625 34.929 146.441 33.8594C148.278 32.7695 150.266 32.2246 152.405 32.2246C154.605 32.2246 156.623 32.7695 158.46 33.8594C160.297 34.9694 161.76 36.4427 162.85 38.2793C163.96 40.1159 164.515 42.1745 164.515 44.4551V49.541C164.515 49.7025 164.434 49.7832 164.272 49.7832H157.31C157.148 49.7832 157.067 49.7025 157.067 49.541L157.007 44.4551C157.007 43.002 156.553 41.8213 155.645 40.9131C154.736 40.0049 153.657 39.5508 152.405 39.5508C151.134 39.5508 150.044 40.0352 149.136 41.0039C148.228 41.9727 147.773 43.123 147.773 44.4551C147.773 45.8073 148.056 46.9375 148.621 47.8457C149.206 48.7539 150.266 49.6217 151.8 50.4492C151.961 50.5299 152.335 50.7318 152.92 51.0547C153.505 51.3776 154.151 51.7409 154.857 52.1445C155.584 52.528 156.24 52.8812 156.825 53.2041C157.41 53.5068 157.764 53.6885 157.885 53.749C159.943 54.8994 161.568 56.3122 162.759 57.9873C163.97 59.6624 164.575 61.721 164.575 64.1631C164.575 66.5244 164.03 68.6436 162.94 70.5205C161.83 72.3975 160.357 73.8809 158.521 74.9707C156.684 76.0605 154.646 76.6055 152.405 76.6055ZM176.2 76H169.177C168.975 76 168.874 75.8991 168.874 75.6973L168.935 33.1025C168.935 32.9411 169.015 32.8604 169.177 32.8604H176.14C176.301 32.8604 176.382 32.9411 176.382 33.1025L176.442 75.6973C176.442 75.8991 176.362 76 176.2 76ZM193.305 75.9395L182.194 76C181.993 76 181.892 75.8991 181.892 75.6973L182.013 33.1025C182.013 32.9411 182.093 32.8604 182.255 32.8604L193.85 32.7998C196.15 32.7393 198.229 33.264 200.086 34.374C201.963 35.484 203.456 36.9876 204.566 38.8848C205.697 40.7617 206.262 42.8405 206.262 45.1211V62.9219C206.262 65.3034 205.687 67.4831 204.536 69.4609C203.366 71.4186 201.812 72.9827 199.874 74.1533C197.937 75.3037 195.747 75.8991 193.305 75.9395ZM193.85 40.2168L189.521 40.2773L189.46 68.3711H193.305C194.839 68.3711 196.13 67.8363 197.18 66.7666C198.229 65.6969 198.754 64.4154 198.754 62.9219V45.0605C198.754 43.7487 198.27 42.6084 197.301 41.6396C196.332 40.6507 195.182 40.1764 193.85 40.2168ZM231.419 76H211.378C211.216 76 211.136 75.8991 211.136 75.6973L211.196 33.1025C211.196 32.9411 211.277 32.8604 211.438 32.8604H231.358C231.52 32.8604 231.601 32.9613 231.601 33.1631V40.0957C231.601 40.2572 231.52 40.3379 231.358 40.3379H218.644V50.0254H231.358C231.52 50.0254 231.601 50.1061 231.601 50.2676L231.661 57.291C231.661 57.4525 231.58 57.5332 231.419 57.5332H218.644V68.3711H231.419C231.58 68.3711 231.661 68.472 231.661 68.6738V75.7578C231.661 75.9193 231.58 76 231.419 76ZM13.4468 120H4.66602C4.53841 120 4.47461 119.92 4.47461 119.761L4.57031 86.0972C4.57031 85.9696 4.63411 85.9058 4.76172 85.9058H14.1885C16.0228 85.9058 17.6896 86.3524 19.189 87.2456C20.6564 88.1388 21.8128 89.3271 22.6582 90.8105C23.5036 92.278 23.9263 93.873 23.9263 95.5957C23.9263 96.9993 23.6073 98.3073 22.9692 99.5195C22.3312 100.732 21.5736 101.713 20.6963 102.462C21.6374 103.403 22.3711 104.496 22.8975 105.74C23.4238 106.984 23.687 108.292 23.687 109.664C23.687 111.562 23.2324 113.293 22.3232 114.856C21.3981 116.419 20.1619 117.671 18.6147 118.612C17.0675 119.537 15.3449 120 13.4468 120ZM14.1885 91.7197H10.4561V99.4238H14.1885C15.321 99.4238 16.2381 99.0251 16.9399 98.2275C17.6418 97.4141 17.9927 96.5368 17.9927 95.5957C17.9927 94.5589 17.6178 93.6577 16.8682 92.8921C16.1185 92.1105 15.2253 91.7197 14.1885 91.7197ZM13.4468 105.357H10.4561L10.4082 114.019H13.4468C14.6271 114.019 15.64 113.588 16.4854 112.727C17.3307 111.865 17.7534 110.844 17.7534 109.664C17.7534 108.484 17.3307 107.471 16.4854 106.625C15.64 105.78 14.6271 105.357 13.4468 105.357ZM25.5532 119.761L31.6304 86.0972C31.6623 85.9696 31.742 85.9058 31.8696 85.9058H38.9756C39.1032 85.9058 39.1829 85.9696 39.2148 86.0972L45.0527 119.761C45.0687 119.92 45.0049 120 44.8613 120H39.4302C39.2707 120 39.1829 119.92 39.167 119.761L38.6406 116.172H31.9653L31.439 119.761C31.423 119.92 31.3433 120 31.1997 120H25.7446C25.617 120 25.5532 119.92 25.5532 119.761ZM35.1475 97.1748L32.9463 110.932H37.6597L35.6499 97.1748L35.3628 95.3564L35.1475 97.1748ZM53.8574 120H48.3066C48.179 120 48.1152 119.92 48.1152 119.761L48.2109 86.0972C48.2109 85.9696 48.2747 85.9058 48.4023 85.9058H58.3076C60.0781 85.9058 61.7051 86.3364 63.1885 87.1978C64.6719 88.0591 65.8522 89.2155 66.7295 90.667C67.6227 92.1185 68.0693 93.7614 68.0693 95.5957C68.0693 96.792 67.8859 97.8766 67.519 98.8496C67.1522 99.8226 66.7215 100.644 66.2271 101.314C65.7485 101.984 65.3099 102.478 64.9111 102.797C66.6816 104.759 67.5669 107.064 67.5669 109.712L67.6147 119.761C67.6147 119.92 67.535 120 67.3755 120H61.8247C61.6971 120 61.6333 119.952 61.6333 119.856V109.712C61.6333 108.532 61.2186 107.511 60.3892 106.649C59.5597 105.788 58.5389 105.357 57.3267 105.357H54.0967L54.0488 119.761C54.0488 119.92 53.985 120 53.8574 120ZM58.3076 91.7676H54.0967V99.4717H58.3076C59.3125 99.4717 60.2057 99.0968 60.9873 98.3472C61.7848 97.5975 62.1836 96.6803 62.1836 95.5957C62.1836 94.5589 61.8008 93.6657 61.0352 92.916C60.2695 92.1504 59.3604 91.7676 58.3076 91.7676ZM95.2729 113.731H91.1577C90.9982 113.731 90.9185 113.652 90.9185 113.492V104.711H83.9561C83.7646 104.711 83.6689 104.632 83.6689 104.472V100.596C83.6689 100.564 83.6929 100.508 83.7407 100.429C83.7886 100.349 83.8604 100.309 83.9561 100.309H90.9185V91.3848C90.9185 91.321 90.9982 91.2891 91.1577 91.2891H95.2729C95.4165 91.2891 95.4883 91.321 95.4883 91.3848V100.309H102.786C102.945 100.309 103.025 100.405 103.025 100.596V104.472C103.025 104.632 102.945 104.711 102.786 104.711H95.4883V113.492C95.4883 113.652 95.4165 113.731 95.2729 113.731ZM127.86 120.479C126.089 120.479 124.494 120.04 123.075 119.163C121.639 118.285 120.483 117.105 119.605 115.622C118.744 114.138 118.313 112.479 118.313 110.645V95.1172C118.313 93.3307 118.752 91.7038 119.629 90.2363C120.491 88.7529 121.647 87.5726 123.099 86.6953C124.55 85.8021 126.137 85.3555 127.86 85.3555C129.662 85.3555 131.289 85.7861 132.741 86.6475C134.192 87.5247 135.341 88.6971 136.186 90.1646C137.047 91.632 137.478 93.2829 137.478 95.1172V97.3662C137.478 97.4938 137.398 97.5576 137.239 97.5576H131.736C131.608 97.5576 131.544 97.4938 131.544 97.3662V95.5C131.544 94.2559 131.194 93.2271 130.492 92.4136C129.79 91.6001 128.913 91.1934 127.86 91.1934C126.919 91.1934 126.081 91.5841 125.348 92.3657C124.614 93.1473 124.247 94.0645 124.247 95.1172V110.645C124.247 111.714 124.606 112.639 125.324 113.42C126.042 114.186 126.887 114.569 127.86 114.569C128.913 114.569 129.79 114.194 130.492 113.444C131.194 112.679 131.544 111.746 131.544 110.645V108.229H128.123C127.948 108.229 127.86 108.149 127.86 107.989V102.51C127.86 102.351 127.948 102.271 128.123 102.271H137.287C137.414 102.271 137.478 102.351 137.478 102.51V110.645C137.478 112.479 137.047 114.138 136.186 115.622C135.309 117.105 134.152 118.285 132.717 119.163C131.281 120.04 129.662 120.479 127.86 120.479ZM146.689 120H141.139C141.011 120 140.947 119.92 140.947 119.761L141.043 86.0972C141.043 85.9696 141.107 85.9058 141.234 85.9058H151.14C152.91 85.9058 154.537 86.3364 156.021 87.1978C157.504 88.0591 158.684 89.2155 159.562 90.667C160.455 92.1185 160.901 93.7614 160.901 95.5957C160.901 96.792 160.718 97.8766 160.351 98.8496C159.984 99.8226 159.554 100.644 159.059 101.314C158.581 101.984 158.142 102.478 157.743 102.797C159.514 104.759 160.399 107.064 160.399 109.712L160.447 119.761C160.447 119.92 160.367 120 160.208 120H154.657C154.529 120 154.465 119.952 154.465 119.856V109.712C154.465 108.532 154.051 107.511 153.221 106.649C152.392 105.788 151.371 105.357 150.159 105.357H146.929L146.881 119.761C146.881 119.92 146.817 120 146.689 120ZM151.14 91.7676H146.929V99.4717H151.14C152.145 99.4717 153.038 99.0968 153.819 98.3472C154.617 97.5975 155.016 96.6803 155.016 95.5957C155.016 94.5589 154.633 93.6657 153.867 92.916C153.102 92.1504 152.192 91.7676 151.14 91.7676ZM170.376 120H164.825C164.666 120 164.586 119.92 164.586 119.761L164.634 86.0972C164.634 85.9696 164.698 85.9058 164.825 85.9058H170.328C170.456 85.9058 170.52 85.9696 170.52 86.0972L170.567 119.761C170.567 119.92 170.504 120 170.376 120ZM190.904 120H175.065C174.938 120 174.874 119.92 174.874 119.761L174.922 86.145C174.922 85.9855 175.002 85.9058 175.161 85.9058H180.616C180.776 85.9058 180.855 85.9855 180.855 86.145L180.808 113.971H190.904C191.064 113.971 191.144 114.05 191.144 114.21V119.761C191.144 119.92 191.064 120 190.904 120ZM210.38 120H194.541C194.413 120 194.35 119.92 194.35 119.761L194.397 86.145C194.397 85.9855 194.477 85.9058 194.637 85.9058H200.092C200.251 85.9058 200.331 85.9855 200.331 86.145L200.283 113.971H210.38C210.539 113.971 210.619 114.05 210.619 114.21V119.761C210.619 119.92 210.539 120 210.38 120ZM229.855 120H214.017C213.889 120 213.825 119.92 213.825 119.761L213.873 86.0972C213.873 85.9696 213.937 85.9058 214.064 85.9058H229.808C229.935 85.9058 229.999 85.9855 229.999 86.145V91.624C229.999 91.7516 229.935 91.8154 229.808 91.8154H219.759V99.4717H229.808C229.935 99.4717 229.999 99.5355 229.999 99.6631L230.047 105.214C230.047 105.341 229.983 105.405 229.855 105.405H219.759V113.971H229.855C229.983 113.971 230.047 114.05 230.047 114.21V119.809C230.047 119.936 229.983 120 229.855 120Z" fill="white"/>
<g clip-path="url(#clip0_1_272)">
<path d="M181.615 152.347V139.106H188.649L188.01 140.915H183.71V144.67H187.989V146.48H183.71V150.538H188.666V152.348L181.615 152.347ZM179.307 140.915H175.689V152.348H173.569V140.915H169.754V139.105H179.884L179.307 140.915ZM156.895 152.348C155.096 152.348 153.816 151.883 152.997 151.078C152.021 150.135 151.72 148.706 151.72 147.319V139.034H153.798V147.221C153.798 148.144 154.058 149.046 154.638 149.67C155.134 150.213 155.896 150.536 156.931 150.536L160.134 150.542L160.132 139.034H162.228V152.348L156.895 152.348ZM165.283 139.106H167.382V152.347H165.283V139.106ZM194.757 152.616C192.94 152.616 191.702 152.012 190.863 151.469L191.742 149.882C192.406 150.344 193.441 150.868 194.68 150.868C195.76 150.868 197.017 150.383 197.017 149.178C197.017 147.148 193.842 146.749 192.244 144.961C191.702 144.356 191.345 143.612 191.345 142.588C191.345 140.661 192.819 139.052 195.481 139.052C196.878 139.052 197.919 139.413 198.597 139.778L198.576 141.744C197.676 141.2 196.661 140.819 195.581 140.819C194.441 140.819 193.503 141.301 193.503 142.347C193.503 144.961 199.26 144.877 199.26 148.938C199.26 151.167 197.298 152.616 194.757 152.616ZM145.119 152.616C143.302 152.616 142.061 152.012 141.223 151.469L142.103 149.882C142.762 150.344 143.8 150.868 145.039 150.868C146.117 150.868 147.379 150.383 147.379 149.178C147.379 147.148 144.2 146.749 142.603 144.961C142.061 144.356 141.704 143.612 141.704 142.588C141.704 140.661 143.181 139.052 145.84 139.052C147.237 139.052 148.275 139.413 148.957 139.778L148.937 141.744C148.036 141.2 147.018 140.819 145.937 140.819C144.798 140.819 143.86 141.301 143.86 142.347C143.86 144.961 149.616 144.877 149.616 148.938C149.616 151.167 147.657 152.616 145.119 152.616ZM75.2388 139.147C77.0414 139.147 78.3216 139.611 79.14 140.419C80.1233 141.365 80.4229 142.795 80.4229 144.184V152.479H78.3391V144.28C78.3391 143.353 78.0789 142.449 77.4988 141.827C76.9997 141.283 76.2382 140.961 75.1979 140.961L71.9942 140.952L71.9969 152.479H69.8956V139.147L75.2388 139.147ZM127.986 152.415V139.156H130.067V150.603H134.595L134.892 152.414L127.986 152.415ZM118.584 152.414V139.155H120.664V150.602H125.192L125.487 152.414L118.584 152.414ZM112.742 139.154H114.844V152.412H112.742V139.154ZM106.898 152.414V146.598H100.235V152.414H98.1341V139.155H100.235V144.747H106.898V139.155H109.002V152.414H106.898ZM89.7286 152.616C85.7027 152.616 83.1235 149.78 83.1235 145.955C83.1235 141.952 85.9848 139.033 90.2841 139.033C91.9686 139.033 93.2512 139.414 94.1101 139.778L94.0904 141.807C93.1295 141.308 91.8712 140.825 90.4283 140.825C87.0064 140.825 85.381 142.999 85.381 145.755C85.381 148.731 87.2453 150.824 90.2693 150.824C91.2477 150.824 92.0092 150.642 92.4912 150.381V145.814H94.5921V151.449C93.531 152.011 91.7912 152.616 89.7286 152.616ZM63.994 139.156H66.0949V152.414H63.994V139.156ZM59.0717 152.416C57.0109 148.995 55.9897 147.185 55.4683 147.041H54.2445V152.416H52.1475V139.157H55.4304C58.7316 139.157 59.9906 140.827 59.9906 142.858C59.9906 144.669 58.809 145.836 57.5089 146.36V146.378C58.049 146.661 59.4521 149.016 61.5124 152.416L59.0717 152.416ZM55.4485 140.986H54.2445V145.393H55.4907C56.8499 145.393 57.8513 144.348 57.8513 143.077C57.8513 141.932 57.1506 140.986 55.4485 140.986ZM44.2829 147.708H43.5028V152.415H41.4015V139.156H44.5415C47.3656 139.156 49.1859 140.646 49.1859 143.359C49.1859 145.353 47.8438 147.708 44.2829 147.708ZM44.3443 140.988H43.5028V145.998H44.422C46.2249 145.998 47.0243 144.967 47.0243 143.422C47.0243 141.993 46.1237 140.988 44.3443 140.988ZM33.8988 152.617C32.0773 152.617 30.8343 152.012 29.995 151.467L30.8759 149.88C31.5343 150.34 32.5753 150.866 33.8188 150.866C34.8981 150.866 36.1586 150.382 36.1586 149.175C36.1586 147.143 32.9768 146.742 31.375 144.951C30.8342 144.347 30.4766 143.602 30.4766 142.576C30.4766 140.645 31.9545 139.035 34.6171 139.035C36.0194 139.035 37.0593 139.394 37.7373 139.758L37.7188 141.729C36.8217 141.189 35.8005 140.806 34.7207 140.806C33.5774 140.806 32.6358 141.288 32.6358 142.335C32.6358 144.951 38.4038 144.869 38.4038 148.936C38.4038 151.168 36.441 152.618 33.9002 152.618" fill="url(#paint0_linear_1_272)"/>
<path d="M203.67 143.698C202.382 143.698 201.333 142.649 201.333 141.349C201.333 140.049 202.382 139 203.67 139C204.962 139 206.006 140.049 206.006 141.349C206.006 142.649 204.962 143.698 203.67 143.698ZM203.67 139.235C202.513 139.235 201.571 140.187 201.571 141.349C201.571 142.516 202.513 143.462 203.67 143.462C204.83 143.462 205.772 142.516 205.772 141.349C205.772 140.187 204.83 139.235 203.67 139.235ZM204.404 142.488C204.324 142.488 204.255 142.478 204.202 142.412L203.531 141.501H203.314V142.488H203.045V140.294H203.805C204.353 140.294 204.441 140.704 204.441 140.872C204.441 141.171 204.208 141.436 203.83 141.482L204.521 142.391C204.553 142.436 204.579 142.461 204.618 142.488L204.404 142.488ZM203.659 140.502H203.314V141.289H203.617C203.918 141.289 204.17 141.181 204.17 140.872C204.17 140.502 203.815 140.502 203.659 140.502Z" fill="white"/>
<path d="M145.654 163.432H143.082V162.162H149.661V163.432H147.089V169.794H145.654V163.432ZM136.645 163.432H134.073V162.162H140.651V163.432H138.079V169.794H136.645L136.645 163.432ZM128.249 168.639C128.621 168.639 128.959 168.566 129.263 168.422C129.565 168.276 129.824 168.08 130.037 167.832C130.249 167.584 130.412 167.296 130.526 166.968C130.64 166.639 130.696 166.297 130.696 165.938C130.696 165.572 130.64 165.226 130.526 164.902C130.412 164.578 130.249 164.294 130.037 164.049C129.824 163.805 129.565 163.613 129.263 163.472C128.959 163.331 128.621 163.26 128.249 163.26C127.87 163.26 127.53 163.331 127.231 163.472C126.931 163.613 126.675 163.805 126.463 164.049C126.25 164.294 126.087 164.578 125.974 164.902C125.86 165.226 125.802 165.572 125.802 165.938C125.802 166.297 125.86 166.639 125.974 166.968C126.087 167.296 126.25 167.584 126.463 167.832C126.675 168.08 126.931 168.276 127.231 168.422C127.53 168.566 127.87 168.639 128.249 168.639ZM128.249 170C127.696 170 127.179 169.896 126.702 169.685C126.223 169.476 125.807 169.188 125.45 168.822C125.093 168.455 124.812 168.028 124.607 167.54C124.402 167.052 124.3 166.529 124.3 165.972C124.3 165.415 124.402 164.893 124.607 164.404C124.812 163.916 125.092 163.491 125.445 163.129C125.797 162.766 126.213 162.481 126.696 162.27C127.178 162.06 127.696 161.956 128.249 161.956C128.803 161.956 129.319 162.06 129.798 162.27C130.276 162.481 130.693 162.766 131.05 163.129C131.406 163.491 131.688 163.916 131.893 164.404C132.096 164.893 132.199 165.415 132.199 165.972C132.199 166.529 132.096 167.052 131.893 167.54C131.688 168.028 131.406 168.455 131.05 168.822C130.693 169.188 130.276 169.476 129.798 169.685C129.319 169.896 128.803 170 128.249 170ZM119.409 162.162H120.843V169.794H119.409V162.162ZM112.734 165.595C113.098 165.595 113.381 165.488 113.581 165.274C113.783 165.06 113.884 164.801 113.884 164.496C113.884 164.168 113.777 163.9 113.565 163.695C113.352 163.489 113.075 163.386 112.734 163.386H111.23V165.595L112.734 165.595ZM109.852 162.162H112.723C113.201 162.162 113.607 162.235 113.94 162.379C114.274 162.523 114.544 162.709 114.748 162.934C114.953 163.159 115.103 163.405 115.198 163.672C115.293 163.939 115.34 164.195 115.34 164.438C115.34 164.919 115.236 165.345 115.028 165.715C114.819 166.085 114.498 166.38 114.065 166.602L115.819 169.794H114.203L112.666 166.784H111.23V169.794H109.853L109.852 162.162ZM103.527 165.594C103.89 165.594 104.173 165.487 104.375 165.274C104.575 165.06 104.676 164.801 104.676 164.496C104.676 164.168 104.57 163.9 104.358 163.695C104.145 163.489 103.868 163.386 103.527 163.386H102.021V165.594L103.527 165.594ZM100.644 162.162H103.516C103.993 162.162 104.4 162.235 104.733 162.379C105.066 162.523 105.336 162.709 105.541 162.933C105.746 163.158 105.895 163.405 105.99 163.672C106.085 163.939 106.133 164.194 106.133 164.438C106.133 164.919 106.029 165.345 105.82 165.714C105.611 166.084 105.291 166.38 104.858 166.601L106.611 169.794H104.995L103.459 166.784H102.021V169.794H100.644L100.644 162.162ZM94.9737 166.669L93.9721 163.706L92.9585 166.669H94.9737ZM93.2777 162.161H94.7567L97.6369 169.794H96.043L95.3831 167.86H92.5606L91.9007 169.794H90.3979L93.2777 162.161ZM79.9532 162.161H81.2851L83.5679 165.765L85.8167 162.161H87.1482L87.5123 169.794H86.1129L85.8626 164.507L83.8637 167.62H83.1921L81.1822 164.587L80.9323 169.794H79.5891L79.9532 162.161Z" fill="url(#paint1_linear_1_272)"/>
</g>
<defs>
<linearGradient id="paint0_linear_1_272" x1="114.627" y1="139.033" x2="114.627" y2="152.618" gradientUnits="userSpaceOnUse">
<stop stop-color="#BABABA"/>
<stop offset="0.510417" stop-color="white"/>
<stop offset="1" stop-color="#BABABA"/>
</linearGradient>
<linearGradient id="paint1_linear_1_272" x1="114.625" y1="161.956" x2="114.625" y2="170" gradientUnits="userSpaceOnUse">
<stop stop-color="#BABABA"/>
<stop offset="0.510417" stop-color="white"/>
<stop offset="1" stop-color="#BABABA"/>
</linearGradient>
<clipPath id="clip0_1_272">
<rect width="176" height="31" fill="white" transform="translate(30 139)"/>
</clipPath>
</defs>
</svg>
