<svg width="235" height="170" viewBox="0 0 235 170" fill="none" xmlns="http://www.w3.org/2000/svg">
<path d="M14.1465 76.6055C11.9062 76.6055 9.85775 76.0404 8.00098 74.9102C6.16439 73.7799 4.70117 72.2663 3.61133 70.3691C2.54167 68.4518 2.00684 66.3226 2.00684 63.9814L2.06738 44.6367C2.06738 42.3359 2.59212 40.2572 3.6416 38.4004C4.69108 36.5234 6.13411 35.0199 7.9707 33.8896C9.82747 32.7393 11.8861 32.1641 14.1465 32.1641C16.4473 32.1641 18.4958 32.7191 20.292 33.8291C22.1084 34.9391 23.5514 36.4427 24.6211 38.3398C25.7109 40.2168 26.2559 42.3158 26.2559 44.6367V47.4824C26.2559 47.6439 26.1751 47.7246 26.0137 47.7246H19.0508C18.8893 47.7246 18.8086 47.6439 18.8086 47.4824V44.6367C18.8086 43.2643 18.3646 42.0837 17.4766 41.0947C16.5885 40.1058 15.4785 39.6113 14.1465 39.6113C12.6732 39.6113 11.543 40.1159 10.7559 41.125C9.96875 42.1341 9.5752 43.3047 9.5752 44.6367V63.9814C9.5752 65.4951 10.0192 66.7363 10.9072 67.7051C11.7952 68.6536 12.875 69.1279 14.1465 69.1279C15.4785 69.1279 16.5885 68.6032 17.4766 67.5537C18.3646 66.484 18.8086 65.2933 18.8086 63.9814V61.1055C18.8086 60.944 18.8893 60.8633 19.0508 60.8633H26.0742C26.2357 60.8633 26.3164 60.944 26.3164 61.1055V63.9814C26.3164 66.3024 25.7715 68.4215 24.6816 70.3389C23.5716 72.236 22.1084 73.7598 20.292 74.9102C18.4756 76.0404 16.4271 76.6055 14.1465 76.6055ZM38.0928 76H31.0693C30.9079 76 30.8271 75.8991 30.8271 75.6973L30.9482 33.1025C30.9482 32.9411 31.029 32.8604 31.1904 32.8604H43.7236C45.9639 32.8604 48.0225 33.4053 49.8994 34.4951C51.7764 35.585 53.2699 37.0482 54.3799 38.8848C55.5101 40.7214 56.0752 42.8001 56.0752 45.1211C56.0752 46.6348 55.8431 48.0072 55.3789 49.2383C54.9147 50.4694 54.3698 51.5088 53.7441 52.3564C53.1387 53.2041 52.5837 53.8298 52.0791 54.2334C54.3193 56.7158 55.4395 59.6322 55.4395 62.9824L55.5 75.6973C55.5 75.8991 55.3991 76 55.1973 76H48.1738C48.0124 76 47.9316 75.9395 47.9316 75.8184V62.9824C47.9316 61.4889 47.4069 60.1973 46.3574 59.1074C45.3079 58.0176 44.0163 57.4727 42.4824 57.4727H38.3955L38.335 75.6973C38.335 75.8991 38.2542 76 38.0928 76ZM43.7236 40.2773H38.3955V50.0254H43.7236C44.9951 50.0254 46.1253 49.5511 47.1143 48.6025C48.1234 47.654 48.6279 46.4935 48.6279 45.1211C48.6279 43.8092 48.1436 42.679 47.1748 41.7305C46.2061 40.7617 45.0557 40.2773 43.7236 40.2773ZM81.0205 76H60.9795C60.818 76 60.7373 75.8991 60.7373 75.6973L60.7979 33.1025C60.7979 32.9411 60.8786 32.8604 61.04 32.8604H80.96C81.1214 32.8604 81.2021 32.9613 81.2021 33.1631V40.0957C81.2021 40.2572 81.1214 40.3379 80.96 40.3379H68.2451V50.0254H80.96C81.1214 50.0254 81.2021 50.1061 81.2021 50.2676L81.2627 57.291C81.2627 57.4525 81.182 57.5332 81.0205 57.5332H68.2451V68.3711H81.0205C81.182 68.3711 81.2627 68.472 81.2627 68.6738V75.7578C81.2627 75.9193 81.182 76 81.0205 76ZM107.056 76H87.0146C86.8532 76 86.7725 75.8991 86.7725 75.6973L86.833 33.1025C86.833 32.9411 86.9137 32.8604 87.0752 32.8604H106.995C107.157 32.8604 107.237 32.9613 107.237 33.1631V40.0957C107.237 40.2572 107.157 40.3379 106.995 40.3379H94.2803V50.0254H106.995C107.157 50.0254 107.237 50.1061 107.237 50.2676L107.298 57.291C107.298 57.4525 107.217 57.5332 107.056 57.5332H94.2803V68.3711H107.056C107.217 68.3711 107.298 68.472 107.298 68.6738V75.7578C107.298 75.9193 107.217 76 107.056 76ZM120.073 76H113.05C112.888 76 112.808 75.8991 112.808 75.6973L112.929 33.1631C112.929 32.9613 113.009 32.8604 113.171 32.8604H120.134C120.295 32.8604 120.376 32.9613 120.376 33.1631V47.8457L130.094 33.1025C130.255 32.9411 130.407 32.8604 130.548 32.8604H137.662C137.844 32.8604 137.884 32.9411 137.783 33.1025L127.066 50.207L139.085 75.7578C139.186 75.9193 139.085 76 138.782 76H131.214C131.012 76 130.891 75.9193 130.851 75.7578L122.465 57.5332L120.315 60.9238V75.6973C120.315 75.8991 120.235 76 120.073 76ZM152.405 76.6055C150.205 76.6055 148.177 76.0404 146.32 74.9102C144.484 73.7799 143.01 72.2764 141.9 70.3994C140.811 68.5023 140.266 66.4235 140.266 64.1631V61.3174C140.266 61.0954 140.367 60.9844 140.568 60.9844H147.531C147.693 60.9844 147.773 61.0954 147.773 61.3174V64.1631C147.773 65.5153 148.228 66.6859 149.136 67.6748C150.044 68.6436 151.134 69.1279 152.405 69.1279C153.697 69.1279 154.797 68.6335 155.705 67.6445C156.613 66.6354 157.067 65.4749 157.067 64.1631C157.067 62.6494 156.078 61.3275 154.101 60.1973C153.778 59.9954 153.354 59.7533 152.829 59.4707C152.325 59.168 151.719 58.8249 151.013 58.4414C150.306 58.0579 149.62 57.6846 148.954 57.3213C148.288 56.9378 147.642 56.5745 147.017 56.2314C144.756 54.8994 143.071 53.2344 141.961 51.2363C140.871 49.2181 140.326 46.9577 140.326 44.4551C140.326 42.1543 140.891 40.0755 142.021 38.2188C143.152 36.3822 144.625 34.929 146.441 33.8594C148.278 32.7695 150.266 32.2246 152.405 32.2246C154.605 32.2246 156.623 32.7695 158.46 33.8594C160.297 34.9694 161.76 36.4427 162.85 38.2793C163.96 40.1159 164.515 42.1745 164.515 44.4551V49.541C164.515 49.7025 164.434 49.7832 164.272 49.7832H157.31C157.148 49.7832 157.067 49.7025 157.067 49.541L157.007 44.4551C157.007 43.002 156.553 41.8213 155.645 40.9131C154.736 40.0049 153.657 39.5508 152.405 39.5508C151.134 39.5508 150.044 40.0352 149.136 41.0039C148.228 41.9727 147.773 43.123 147.773 44.4551C147.773 45.8073 148.056 46.9375 148.621 47.8457C149.206 48.7539 150.266 49.6217 151.8 50.4492C151.961 50.5299 152.335 50.7318 152.92 51.0547C153.505 51.3776 154.151 51.7409 154.857 52.1445C155.584 52.528 156.24 52.8812 156.825 53.2041C157.41 53.5068 157.764 53.6885 157.885 53.749C159.943 54.8994 161.568 56.3122 162.759 57.9873C163.97 59.6624 164.575 61.721 164.575 64.1631C164.575 66.5244 164.03 68.6436 162.94 70.5205C161.83 72.3975 160.357 73.8809 158.521 74.9707C156.684 76.0605 154.646 76.6055 152.405 76.6055ZM176.2 76H169.177C168.975 76 168.874 75.8991 168.874 75.6973L168.935 33.1025C168.935 32.9411 169.015 32.8604 169.177 32.8604H176.14C176.301 32.8604 176.382 32.9411 176.382 33.1025L176.442 75.6973C176.442 75.8991 176.362 76 176.2 76ZM193.305 75.9395L182.194 76C181.993 76 181.892 75.8991 181.892 75.6973L182.013 33.1025C182.013 32.9411 182.093 32.8604 182.255 32.8604L193.85 32.7998C196.15 32.7393 198.229 33.264 200.086 34.374C201.963 35.484 203.456 36.9876 204.566 38.8848C205.697 40.7617 206.262 42.8405 206.262 45.1211V62.9219C206.262 65.3034 205.687 67.4831 204.536 69.4609C203.366 71.4186 201.812 72.9827 199.874 74.1533C197.937 75.3037 195.747 75.8991 193.305 75.9395ZM193.85 40.2168L189.521 40.2773L189.46 68.3711H193.305C194.839 68.3711 196.13 67.8363 197.18 66.7666C198.229 65.6969 198.754 64.4154 198.754 62.9219V45.0605C198.754 43.7487 198.27 42.6084 197.301 41.6396C196.332 40.6507 195.182 40.1764 193.85 40.2168ZM231.419 76H211.378C211.216 76 211.136 75.8991 211.136 75.6973L211.196 33.1025C211.196 32.9411 211.277 32.8604 211.438 32.8604H231.358C231.52 32.8604 231.601 32.9613 231.601 33.1631V40.0957C231.601 40.2572 231.52 40.3379 231.358 40.3379H218.644V50.0254H231.358C231.52 50.0254 231.601 50.1061 231.601 50.2676L231.661 57.291C231.661 57.4525 231.58 57.5332 231.419 57.5332H218.644V68.3711H231.419C231.58 68.3711 231.661 68.472 231.661 68.6738V75.7578C231.661 75.9193 231.58 76 231.419 76ZM12.1069 120H3.32617C3.19857 120 3.13477 119.92 3.13477 119.761L3.23047 86.0972C3.23047 85.9696 3.29427 85.9058 3.42188 85.9058H12.8486C14.6829 85.9058 16.3498 86.3524 17.8491 87.2456C19.3166 88.1388 20.473 89.3271 21.3184 90.8105C22.1637 92.278 22.5864 93.873 22.5864 95.5957C22.5864 96.9993 22.2674 98.3073 21.6294 99.5195C20.9914 100.732 20.2337 101.713 19.3564 102.462C20.2975 103.403 21.0312 104.496 21.5576 105.74C22.084 106.984 22.3472 108.292 22.3472 109.664C22.3472 111.562 21.8926 113.293 20.9834 114.856C20.0583 116.419 18.8221 117.671 17.2749 118.612C15.7277 119.537 14.005 120 12.1069 120ZM12.8486 91.7197H9.11621V99.4238H12.8486C13.9811 99.4238 14.8983 99.0251 15.6001 98.2275C16.3019 97.4141 16.6528 96.5368 16.6528 95.5957C16.6528 94.5589 16.278 93.6577 15.5283 92.8921C14.7786 92.1105 13.8854 91.7197 12.8486 91.7197ZM12.1069 105.357H9.11621L9.06836 114.019H12.1069C13.2873 114.019 14.3001 113.588 15.1455 112.727C15.9909 111.865 16.4136 110.844 16.4136 109.664C16.4136 108.484 15.9909 107.471 15.1455 106.625C14.3001 105.78 13.2873 105.357 12.1069 105.357ZM24.2134 119.761L30.2905 86.0972C30.3224 85.9696 30.4022 85.9058 30.5298 85.9058H37.6357C37.7633 85.9058 37.8431 85.9696 37.875 86.0972L43.7129 119.761C43.7288 119.92 43.665 120 43.5215 120H38.0903C37.9308 120 37.8431 119.92 37.8271 119.761L37.3008 116.172H30.6255L30.0991 119.761C30.0832 119.92 30.0034 120 29.8599 120H24.4048C24.2772 120 24.2134 119.92 24.2134 119.761ZM33.8076 97.1748L31.6064 110.932H36.3198L34.3101 97.1748L34.0229 95.3564L33.8076 97.1748ZM52.5176 120H46.9668C46.8392 120 46.7754 119.92 46.7754 119.761L46.8711 86.0972C46.8711 85.9696 46.9349 85.9058 47.0625 85.9058H56.9678C58.7383 85.9058 60.3652 86.3364 61.8486 87.1978C63.332 88.0591 64.5124 89.2155 65.3896 90.667C66.2829 92.1185 66.7295 93.7614 66.7295 95.5957C66.7295 96.792 66.5461 97.8766 66.1792 98.8496C65.8123 99.8226 65.3817 100.644 64.8872 101.314C64.4087 101.984 63.9701 102.478 63.5713 102.797C65.3418 104.759 66.2271 107.064 66.2271 109.712L66.2749 119.761C66.2749 119.92 66.1951 120 66.0356 120H60.4849C60.3573 120 60.2935 119.952 60.2935 119.856V109.712C60.2935 108.532 59.8787 107.511 59.0493 106.649C58.2199 105.788 57.1991 105.357 55.9868 105.357H52.7568L52.709 119.761C52.709 119.92 52.6452 120 52.5176 120ZM56.9678 91.7676H52.7568V99.4717H56.9678C57.9727 99.4717 58.8659 99.0968 59.6475 98.3472C60.445 97.5975 60.8438 96.6803 60.8438 95.5957C60.8438 94.5589 60.4609 93.6657 59.6953 92.916C58.9297 92.1504 58.0205 91.7676 56.9678 91.7676ZM100.202 120L91.4927 120.048C89.5786 120.048 87.8879 119.569 86.4204 118.612C84.9689 117.671 83.8285 116.483 82.999 115.047C82.1855 113.612 81.7788 112.176 81.7788 110.741V107.511C81.7788 106.394 82.042 105.318 82.5684 104.281C83.0947 103.228 83.7806 102.295 84.626 101.481C83.9401 100.732 83.3978 99.8146 82.999 98.73C82.6162 97.6294 82.4248 96.4092 82.4248 95.0693C82.4248 93.3786 82.8236 91.8314 83.6211 90.4277C84.4186 89.04 85.4953 87.9395 86.8511 87.126C88.2069 86.3125 89.7142 85.9058 91.373 85.9058H98.0005C98.2238 85.9058 98.3354 86.0174 98.3354 86.2407V91.4326C98.3354 91.624 98.2397 91.7197 98.0483 91.7197H91.373C90.5596 91.7197 89.8498 92.0467 89.2437 92.7007C88.6375 93.3547 88.3345 94.1442 88.3345 95.0693C88.3345 96.1699 88.5897 97.0312 89.1001 97.6533C89.6105 98.2754 90.3682 98.5864 91.373 98.5864H104.7C104.875 98.5864 104.963 98.6662 104.963 98.8257V104.281C104.963 104.408 104.899 104.472 104.771 104.472H100.441L100.393 119.809C100.393 119.936 100.329 120 100.202 120ZM91.4927 114.162L94.6748 114.114L94.7227 104.472H91.3252C90.6393 104.472 90.0173 104.64 89.459 104.975C88.2308 105.724 87.6167 106.57 87.6167 107.511V110.741C87.6167 111.219 87.7762 111.73 88.0952 112.272C88.4142 112.814 88.8608 113.269 89.4351 113.636C90.0093 113.987 90.6951 114.162 91.4927 114.162ZM129.2 120.479C127.429 120.479 125.834 120.04 124.415 119.163C122.979 118.285 121.823 117.105 120.945 115.622C120.084 114.138 119.653 112.479 119.653 110.645V95.1172C119.653 93.3307 120.092 91.7038 120.969 90.2363C121.831 88.7529 122.987 87.5726 124.438 86.6953C125.89 85.8021 127.477 85.3555 129.2 85.3555C131.002 85.3555 132.629 85.7861 134.081 86.6475C135.532 87.5247 136.681 88.6971 137.526 90.1646C138.387 91.632 138.818 93.2829 138.818 95.1172V97.3662C138.818 97.4938 138.738 97.5576 138.579 97.5576H133.076C132.948 97.5576 132.884 97.4938 132.884 97.3662V95.5C132.884 94.2559 132.533 93.2271 131.832 92.4136C131.13 91.6001 130.252 91.1934 129.2 91.1934C128.259 91.1934 127.421 91.5841 126.688 92.3657C125.954 93.1473 125.587 94.0645 125.587 95.1172V110.645C125.587 111.714 125.946 112.639 126.664 113.42C127.381 114.186 128.227 114.569 129.2 114.569C130.252 114.569 131.13 114.194 131.832 113.444C132.533 112.679 132.884 111.746 132.884 110.645V108.229H129.463C129.287 108.229 129.2 108.149 129.2 107.989V102.51C129.2 102.351 129.287 102.271 129.463 102.271H138.626C138.754 102.271 138.818 102.351 138.818 102.51V110.645C138.818 112.479 138.387 114.138 137.526 115.622C136.649 117.105 135.492 118.285 134.057 119.163C132.621 120.04 131.002 120.479 129.2 120.479ZM148.029 120H142.479C142.351 120 142.287 119.92 142.287 119.761L142.383 86.0972C142.383 85.9696 142.447 85.9058 142.574 85.9058H152.479C154.25 85.9058 155.877 86.3364 157.36 87.1978C158.844 88.0591 160.024 89.2155 160.901 90.667C161.795 92.1185 162.241 93.7614 162.241 95.5957C162.241 96.792 162.058 97.8766 161.691 98.8496C161.324 99.8226 160.893 100.644 160.399 101.314C159.92 101.984 159.482 102.478 159.083 102.797C160.854 104.759 161.739 107.064 161.739 109.712L161.787 119.761C161.787 119.92 161.707 120 161.547 120H155.997C155.869 120 155.805 119.952 155.805 119.856V109.712C155.805 108.532 155.39 107.511 154.561 106.649C153.732 105.788 152.711 105.357 151.499 105.357H148.269L148.221 119.761C148.221 119.92 148.157 120 148.029 120ZM152.479 91.7676H148.269V99.4717H152.479C153.484 99.4717 154.378 99.0968 155.159 98.3472C155.957 97.5975 156.355 96.6803 156.355 95.5957C156.355 94.5589 155.973 93.6657 155.207 92.916C154.441 92.1504 153.532 91.7676 152.479 91.7676ZM171.716 120H166.165C166.006 120 165.926 119.92 165.926 119.761L165.974 86.0972C165.974 85.9696 166.037 85.9058 166.165 85.9058H171.668C171.796 85.9058 171.859 85.9696 171.859 86.0972L171.907 119.761C171.907 119.92 171.843 120 171.716 120ZM192.244 120H176.405C176.278 120 176.214 119.92 176.214 119.761L176.262 86.145C176.262 85.9855 176.341 85.9058 176.501 85.9058H181.956C182.116 85.9058 182.195 85.9855 182.195 86.145L182.147 113.971H192.244C192.404 113.971 192.483 114.05 192.483 114.21V119.761C192.483 119.92 192.404 120 192.244 120ZM211.72 120H195.881C195.753 120 195.689 119.92 195.689 119.761L195.737 86.145C195.737 85.9855 195.817 85.9058 195.977 85.9058H201.432C201.591 85.9058 201.671 85.9855 201.671 86.145L201.623 113.971H211.72C211.879 113.971 211.959 114.05 211.959 114.21V119.761C211.959 119.92 211.879 120 211.72 120ZM231.195 120H215.356C215.229 120 215.165 119.92 215.165 119.761L215.213 86.0972C215.213 85.9696 215.277 85.9058 215.404 85.9058H231.147C231.275 85.9058 231.339 85.9855 231.339 86.145V91.624C231.339 91.7516 231.275 91.8154 231.147 91.8154H221.099V99.4717H231.147C231.275 99.4717 231.339 99.5355 231.339 99.6631L231.387 105.214C231.387 105.341 231.323 105.405 231.195 105.405H221.099V113.971H231.195C231.323 113.971 231.387 114.05 231.387 114.21V119.809C231.387 119.936 231.323 120 231.195 120Z" fill="white"/>
<g clip-path="url(#clip0_1_272)">
<path d="M181.615 152.347V139.106H188.649L188.01 140.915H183.71V144.67H187.989V146.48H183.71V150.538H188.666V152.348L181.615 152.347ZM179.307 140.915H175.689V152.348H173.569V140.915H169.754V139.105H179.884L179.307 140.915ZM156.895 152.348C155.096 152.348 153.816 151.883 152.997 151.078C152.021 150.135 151.72 148.706 151.72 147.319V139.034H153.798V147.221C153.798 148.144 154.058 149.046 154.638 149.67C155.134 150.213 155.896 150.536 156.931 150.536L160.134 150.542L160.132 139.034H162.228V152.348L156.895 152.348ZM165.283 139.106H167.382V152.347H165.283V139.106ZM194.757 152.616C192.94 152.616 191.702 152.012 190.863 151.469L191.742 149.882C192.406 150.344 193.441 150.868 194.68 150.868C195.76 150.868 197.017 150.383 197.017 149.178C197.017 147.148 193.842 146.749 192.244 144.961C191.702 144.356 191.345 143.612 191.345 142.588C191.345 140.661 192.819 139.052 195.481 139.052C196.878 139.052 197.919 139.413 198.597 139.778L198.576 141.744C197.676 141.2 196.661 140.819 195.581 140.819C194.441 140.819 193.503 141.301 193.503 142.347C193.503 144.961 199.26 144.877 199.26 148.938C199.26 151.167 197.298 152.616 194.757 152.616ZM145.119 152.616C143.302 152.616 142.061 152.012 141.223 151.469L142.103 149.882C142.762 150.344 143.8 150.868 145.039 150.868C146.117 150.868 147.379 150.383 147.379 149.178C147.379 147.148 144.2 146.749 142.603 144.961C142.061 144.356 141.704 143.612 141.704 142.588C141.704 140.661 143.181 139.052 145.84 139.052C147.237 139.052 148.275 139.413 148.957 139.778L148.937 141.744C148.036 141.2 147.018 140.819 145.937 140.819C144.798 140.819 143.86 141.301 143.86 142.347C143.86 144.961 149.616 144.877 149.616 148.938C149.616 151.167 147.657 152.616 145.119 152.616ZM75.2388 139.147C77.0414 139.147 78.3216 139.611 79.14 140.419C80.1233 141.365 80.4229 142.795 80.4229 144.184V152.479H78.3391V144.28C78.3391 143.353 78.0789 142.449 77.4988 141.827C76.9997 141.283 76.2382 140.961 75.1979 140.961L71.9942 140.952L71.9969 152.479H69.8956V139.147L75.2388 139.147ZM127.986 152.415V139.156H130.067V150.603H134.595L134.892 152.414L127.986 152.415ZM118.584 152.414V139.155H120.664V150.602H125.192L125.487 152.414L118.584 152.414ZM112.742 139.154H114.844V152.412H112.742V139.154ZM106.898 152.414V146.598H100.235V152.414H98.1341V139.155H100.235V144.747H106.898V139.155H109.002V152.414H106.898ZM89.7286 152.616C85.7027 152.616 83.1235 149.78 83.1235 145.955C83.1235 141.952 85.9848 139.033 90.2841 139.033C91.9686 139.033 93.2512 139.414 94.1101 139.778L94.0904 141.807C93.1295 141.308 91.8712 140.825 90.4283 140.825C87.0064 140.825 85.381 142.999 85.381 145.755C85.381 148.731 87.2453 150.824 90.2693 150.824C91.2477 150.824 92.0092 150.642 92.4912 150.381V145.814H94.5921V151.449C93.531 152.011 91.7912 152.616 89.7286 152.616ZM63.994 139.156H66.0949V152.414H63.994V139.156ZM59.0717 152.416C57.0109 148.995 55.9897 147.185 55.4683 147.041H54.2445V152.416H52.1475V139.157H55.4304C58.7316 139.157 59.9906 140.827 59.9906 142.858C59.9906 144.669 58.809 145.836 57.5089 146.36V146.378C58.049 146.661 59.4521 149.016 61.5124 152.416L59.0717 152.416ZM55.4485 140.986H54.2445V145.393H55.4907C56.8499 145.393 57.8513 144.348 57.8513 143.077C57.8513 141.932 57.1506 140.986 55.4485 140.986ZM44.2829 147.708H43.5028V152.415H41.4015V139.156H44.5415C47.3656 139.156 49.1859 140.646 49.1859 143.359C49.1859 145.353 47.8438 147.708 44.2829 147.708ZM44.3443 140.988H43.5028V145.998H44.422C46.2249 145.998 47.0243 144.967 47.0243 143.422C47.0243 141.993 46.1237 140.988 44.3443 140.988ZM33.8988 152.617C32.0773 152.617 30.8343 152.012 29.995 151.467L30.8759 149.88C31.5343 150.34 32.5753 150.866 33.8188 150.866C34.8981 150.866 36.1586 150.382 36.1586 149.175C36.1586 147.143 32.9768 146.742 31.375 144.951C30.8342 144.347 30.4766 143.602 30.4766 142.576C30.4766 140.645 31.9545 139.035 34.6171 139.035C36.0194 139.035 37.0593 139.394 37.7373 139.758L37.7188 141.729C36.8217 141.189 35.8005 140.806 34.7207 140.806C33.5774 140.806 32.6358 141.288 32.6358 142.335C32.6358 144.951 38.4038 144.869 38.4038 148.936C38.4038 151.168 36.441 152.618 33.9002 152.618" fill="url(#paint0_linear_1_272)"/>
<path d="M203.67 143.698C202.382 143.698 201.333 142.649 201.333 141.349C201.333 140.049 202.382 139 203.67 139C204.962 139 206.006 140.049 206.006 141.349C206.006 142.649 204.962 143.698 203.67 143.698ZM203.67 139.235C202.513 139.235 201.571 140.187 201.571 141.349C201.571 142.516 202.513 143.462 203.67 143.462C204.83 143.462 205.772 142.516 205.772 141.349C205.772 140.187 204.83 139.235 203.67 139.235ZM204.404 142.488C204.324 142.488 204.255 142.478 204.202 142.412L203.531 141.501H203.314V142.488H203.045V140.294H203.805C204.353 140.294 204.441 140.704 204.441 140.872C204.441 141.171 204.208 141.436 203.83 141.482L204.521 142.391C204.553 142.436 204.579 142.461 204.618 142.488L204.404 142.488ZM203.659 140.502H203.314V141.289H203.617C203.918 141.289 204.17 141.181 204.17 140.872C204.17 140.502 203.815 140.502 203.659 140.502Z" fill="white"/>
<path d="M145.654 163.432H143.082V162.162H149.661V163.432H147.089V169.794H145.654V163.432ZM136.645 163.432H134.073V162.162H140.651V163.432H138.079V169.794H136.645L136.645 163.432ZM128.249 168.639C128.621 168.639 128.959 168.566 129.263 168.422C129.565 168.276 129.824 168.08 130.037 167.832C130.249 167.584 130.412 167.296 130.526 166.968C130.64 166.639 130.696 166.297 130.696 165.938C130.696 165.572 130.64 165.226 130.526 164.902C130.412 164.578 130.249 164.294 130.037 164.049C129.824 163.805 129.565 163.613 129.263 163.472C128.959 163.331 128.621 163.26 128.249 163.26C127.87 163.26 127.53 163.331 127.231 163.472C126.931 163.613 126.675 163.805 126.463 164.049C126.25 164.294 126.087 164.578 125.974 164.902C125.86 165.226 125.802 165.572 125.802 165.938C125.802 166.297 125.86 166.639 125.974 166.968C126.087 167.296 126.25 167.584 126.463 167.832C126.675 168.08 126.931 168.276 127.231 168.422C127.53 168.566 127.87 168.639 128.249 168.639ZM128.249 170C127.696 170 127.179 169.896 126.702 169.685C126.223 169.476 125.807 169.188 125.45 168.822C125.093 168.455 124.812 168.028 124.607 167.54C124.402 167.052 124.3 166.529 124.3 165.972C124.3 165.415 124.402 164.893 124.607 164.404C124.812 163.916 125.092 163.491 125.445 163.129C125.797 162.766 126.213 162.481 126.696 162.27C127.178 162.06 127.696 161.956 128.249 161.956C128.803 161.956 129.319 162.06 129.798 162.27C130.276 162.481 130.693 162.766 131.05 163.129C131.406 163.491 131.688 163.916 131.893 164.404C132.096 164.893 132.199 165.415 132.199 165.972C132.199 166.529 132.096 167.052 131.893 167.54C131.688 168.028 131.406 168.455 131.05 168.822C130.693 169.188 130.276 169.476 129.798 169.685C129.319 169.896 128.803 170 128.249 170ZM119.409 162.162H120.843V169.794H119.409V162.162ZM112.734 165.595C113.098 165.595 113.381 165.488 113.581 165.274C113.783 165.06 113.884 164.801 113.884 164.496C113.884 164.168 113.777 163.9 113.565 163.695C113.352 163.489 113.075 163.386 112.734 163.386H111.23V165.595L112.734 165.595ZM109.852 162.162H112.723C113.201 162.162 113.607 162.235 113.94 162.379C114.274 162.523 114.544 162.709 114.748 162.934C114.953 163.159 115.103 163.405 115.198 163.672C115.293 163.939 115.34 164.195 115.34 164.438C115.34 164.919 115.236 165.345 115.028 165.715C114.819 166.085 114.498 166.38 114.065 166.602L115.819 169.794H114.203L112.666 166.784H111.23V169.794H109.853L109.852 162.162ZM103.527 165.594C103.89 165.594 104.173 165.487 104.375 165.274C104.575 165.06 104.676 164.801 104.676 164.496C104.676 164.168 104.57 163.9 104.358 163.695C104.145 163.489 103.868 163.386 103.527 163.386H102.021V165.594L103.527 165.594ZM100.644 162.162H103.516C103.993 162.162 104.4 162.235 104.733 162.379C105.066 162.523 105.336 162.709 105.541 162.933C105.746 163.158 105.895 163.405 105.99 163.672C106.085 163.939 106.133 164.194 106.133 164.438C106.133 164.919 106.029 165.345 105.82 165.714C105.611 166.084 105.291 166.38 104.858 166.601L106.611 169.794H104.995L103.459 166.784H102.021V169.794H100.644L100.644 162.162ZM94.9737 166.669L93.9721 163.706L92.9585 166.669H94.9737ZM93.2777 162.161H94.7567L97.6369 169.794H96.043L95.3831 167.86H92.5606L91.9007 169.794H90.3979L93.2777 162.161ZM79.9532 162.161H81.2851L83.5679 165.765L85.8167 162.161H87.1482L87.5123 169.794H86.1129L85.8626 164.507L83.8637 167.62H83.1921L81.1822 164.587L80.9323 169.794H79.5891L79.9532 162.161Z" fill="url(#paint1_linear_1_272)"/>
</g>
<defs>
<linearGradient id="paint0_linear_1_272" x1="114.627" y1="139.033" x2="114.627" y2="152.618" gradientUnits="userSpaceOnUse">
<stop stop-color="#BABABA"/>
<stop offset="0.510417" stop-color="white"/>
<stop offset="1" stop-color="#BABABA"/>
</linearGradient>
<linearGradient id="paint1_linear_1_272" x1="114.625" y1="161.956" x2="114.625" y2="170" gradientUnits="userSpaceOnUse">
<stop stop-color="#BABABA"/>
<stop offset="0.510417" stop-color="white"/>
<stop offset="1" stop-color="#BABABA"/>
</linearGradient>
<clipPath id="clip0_1_272">
<rect width="176" height="31" fill="white" transform="translate(30 139)"/>
</clipPath>
</defs>
</svg>
