<svg width="226" height="153" viewBox="0 0 226 153" fill="none" xmlns="http://www.w3.org/2000/svg">
<g clip-path="url(#clip0_1_272)">
<path d="M176.615 135.347V122.106H183.649L183.01 123.915H178.71V127.67H182.989V129.48H178.71V133.538H183.666V135.348L176.615 135.347ZM174.307 123.915H170.689V135.348H168.569V123.915H164.754V122.105H174.884L174.307 123.915ZM151.895 135.348C150.096 135.348 148.816 134.883 147.997 134.078C147.021 133.135 146.72 131.706 146.72 130.319V122.034H148.798V130.221C148.798 131.144 149.058 132.046 149.638 132.67C150.134 133.213 150.896 133.536 151.931 133.536L155.134 133.542L155.132 122.034H157.228V135.348L151.895 135.348ZM160.283 122.106H162.382V135.347H160.283V122.106ZM189.757 135.616C187.94 135.616 186.702 135.012 185.863 134.469L186.742 132.882C187.406 133.344 188.441 133.868 189.68 133.868C190.76 133.868 192.017 133.383 192.017 132.178C192.017 130.148 188.842 129.749 187.244 127.961C186.702 127.356 186.345 126.612 186.345 125.588C186.345 123.661 187.819 122.052 190.481 122.052C191.878 122.052 192.919 122.413 193.597 122.778L193.576 124.744C192.676 124.2 191.661 123.819 190.581 123.819C189.441 123.819 188.503 124.301 188.503 125.347C188.503 127.961 194.26 127.877 194.26 131.938C194.26 134.167 192.298 135.616 189.757 135.616ZM140.119 135.616C138.302 135.616 137.061 135.012 136.223 134.469L137.103 132.882C137.762 133.344 138.8 133.868 140.039 133.868C141.117 133.868 142.379 133.383 142.379 132.178C142.379 130.148 139.2 129.749 137.603 127.961C137.061 127.356 136.704 126.612 136.704 125.588C136.704 123.661 138.181 122.052 140.84 122.052C142.237 122.052 143.275 122.413 143.957 122.778L143.937 124.744C143.036 124.2 142.018 123.819 140.937 123.819C139.798 123.819 138.86 124.301 138.86 125.347C138.86 127.961 144.616 127.877 144.616 131.938C144.616 134.167 142.657 135.616 140.119 135.616ZM70.2388 122.147C72.0414 122.147 73.3216 122.611 74.14 123.419C75.1233 124.365 75.4229 125.795 75.4229 127.184V135.479H73.3391V127.28C73.3391 126.353 73.0789 125.449 72.4988 124.827C71.9997 124.283 71.2382 123.961 70.1979 123.961L66.9942 123.952L66.9969 135.479H64.8956V122.147L70.2388 122.147ZM122.986 135.415V122.156H125.067V133.603H129.595L129.892 135.414L122.986 135.415ZM113.584 135.414V122.155H115.664V133.602H120.192L120.487 135.414L113.584 135.414ZM107.742 122.154H109.844V135.412H107.742V122.154ZM101.898 135.414V129.598H95.2349V135.414H93.1341V122.155H95.2349V127.747H101.898V122.155H104.002V135.414H101.898ZM84.7286 135.616C80.7027 135.616 78.1235 132.78 78.1235 128.955C78.1235 124.952 80.9848 122.033 85.2841 122.033C86.9686 122.033 88.2512 122.414 89.1101 122.778L89.0904 124.807C88.1295 124.308 86.8712 123.825 85.4283 123.825C82.0064 123.825 80.381 125.999 80.381 128.755C80.381 131.731 82.2453 133.824 85.2693 133.824C86.2477 133.824 87.0092 133.642 87.4912 133.381V128.814H89.5921V134.449C88.531 135.011 86.7912 135.616 84.7286 135.616ZM58.994 122.156H61.0949V135.414H58.994V122.156ZM54.0717 135.416C52.0109 131.995 50.9897 130.185 50.4683 130.041H49.2445V135.416H47.1475V122.157H50.4304C53.7316 122.157 54.9906 123.827 54.9906 125.858C54.9906 127.669 53.809 128.836 52.5089 129.36V129.378C53.049 129.661 54.4521 132.016 56.5124 135.416L54.0717 135.416ZM50.4485 123.986H49.2445V128.393H50.4907C51.8499 128.393 52.8513 127.348 52.8513 126.077C52.8513 124.932 52.1506 123.986 50.4485 123.986ZM39.2829 130.708H38.5028V135.415H36.4015V122.156H39.5415C42.3656 122.156 44.1859 123.646 44.1859 126.359C44.1859 128.353 42.8438 130.708 39.2829 130.708ZM39.3443 123.988H38.5028V128.998H39.422C41.2249 128.998 42.0243 127.967 42.0243 126.422C42.0243 124.993 41.1237 123.988 39.3443 123.988ZM28.8988 135.617C27.0773 135.617 25.8343 135.012 24.995 134.467L25.8759 132.88C26.5343 133.34 27.5753 133.866 28.8188 133.866C29.8981 133.866 31.1586 133.382 31.1586 132.175C31.1586 130.143 27.9768 129.742 26.375 127.951C25.8342 127.347 25.4766 126.602 25.4766 125.576C25.4766 123.645 26.9545 122.035 29.6171 122.035C31.0194 122.035 32.0593 122.394 32.7373 122.758L32.7188 124.729C31.8217 124.189 30.8005 123.806 29.7207 123.806C28.5774 123.806 27.6358 124.288 27.6358 125.335C27.6358 127.951 33.4038 127.869 33.4038 131.936C33.4038 134.168 31.441 135.618 28.9002 135.618" fill="url(#paint0_linear_1_272)"/>
<path d="M198.67 126.698C197.382 126.698 196.333 125.649 196.333 124.349C196.333 123.049 197.382 122 198.67 122C199.962 122 201.006 123.049 201.006 124.349C201.006 125.649 199.962 126.698 198.67 126.698ZM198.67 122.235C197.513 122.235 196.571 123.187 196.571 124.349C196.571 125.516 197.513 126.462 198.67 126.462C199.83 126.462 200.772 125.516 200.772 124.349C200.772 123.187 199.83 122.235 198.67 122.235ZM199.404 125.488C199.324 125.488 199.255 125.478 199.202 125.412L198.531 124.501H198.314V125.488H198.045V123.294H198.805C199.353 123.294 199.441 123.704 199.441 123.872C199.441 124.171 199.208 124.436 198.83 124.482L199.521 125.391C199.553 125.436 199.579 125.461 199.618 125.488L199.404 125.488ZM198.659 123.502H198.314V124.289H198.617C198.918 124.289 199.17 124.181 199.17 123.872C199.17 123.502 198.815 123.502 198.659 123.502Z" fill="white"/>
<path d="M140.654 146.432H138.082V145.162H144.661V146.432H142.089V152.794H140.654V146.432ZM131.645 146.432H129.073V145.162H135.651V146.432H133.079V152.794H131.645L131.645 146.432ZM123.249 151.639C123.621 151.639 123.959 151.566 124.263 151.422C124.565 151.276 124.824 151.08 125.037 150.832C125.249 150.584 125.412 150.296 125.526 149.968C125.64 149.639 125.696 149.297 125.696 148.938C125.696 148.572 125.64 148.226 125.526 147.902C125.412 147.578 125.249 147.294 125.037 147.049C124.824 146.805 124.565 146.613 124.263 146.472C123.959 146.331 123.621 146.26 123.249 146.26C122.87 146.26 122.53 146.331 122.231 146.472C121.931 146.613 121.675 146.805 121.463 147.049C121.25 147.294 121.087 147.578 120.974 147.902C120.86 148.226 120.802 148.572 120.802 148.938C120.802 149.297 120.86 149.639 120.974 149.968C121.087 150.296 121.25 150.584 121.463 150.832C121.675 151.08 121.931 151.276 122.231 151.422C122.53 151.566 122.87 151.639 123.249 151.639ZM123.249 153C122.696 153 122.179 152.896 121.702 152.685C121.223 152.476 120.807 152.188 120.45 151.822C120.093 151.455 119.812 151.028 119.607 150.54C119.402 150.052 119.3 149.529 119.3 148.972C119.3 148.415 119.402 147.893 119.607 147.404C119.812 146.916 120.092 146.491 120.445 146.129C120.797 145.766 121.213 145.481 121.696 145.27C122.178 145.06 122.696 144.956 123.249 144.956C123.803 144.956 124.319 145.06 124.798 145.27C125.276 145.481 125.693 145.766 126.05 146.129C126.406 146.491 126.688 146.916 126.893 147.404C127.096 147.893 127.199 148.415 127.199 148.972C127.199 149.529 127.096 150.052 126.893 150.54C126.688 151.028 126.406 151.455 126.05 151.822C125.693 152.188 125.276 152.476 124.798 152.685C124.319 152.896 123.803 153 123.249 153ZM114.409 145.162H115.843V152.794H114.409V145.162ZM107.734 148.595C108.098 148.595 108.381 148.488 108.581 148.274C108.783 148.06 108.884 147.801 108.884 147.496C108.884 147.168 108.777 146.9 108.565 146.695C108.352 146.489 108.075 146.386 107.734 146.386H106.23V148.595L107.734 148.595ZM104.852 145.162H107.723C108.201 145.162 108.607 145.235 108.94 145.379C109.274 145.523 109.544 145.709 109.748 145.934C109.953 146.159 110.103 146.405 110.198 146.672C110.293 146.939 110.34 147.195 110.34 147.438C110.34 147.919 110.236 148.345 110.028 148.715C109.819 149.085 109.498 149.38 109.065 149.602L110.819 152.794H109.203L107.666 149.784H106.23V152.794H104.853L104.852 145.162ZM98.5268 148.594C98.8904 148.594 99.1725 148.487 99.3746 148.274C99.5749 148.06 99.6762 147.801 99.6762 147.496C99.6762 147.168 99.5696 146.9 99.3577 146.695C99.1448 146.489 98.8677 146.386 98.5267 146.386H97.0212V148.594L98.5268 148.594ZM95.6443 145.162H98.5158C98.9928 145.162 99.3997 145.235 99.7331 145.379C100.066 145.523 100.336 145.709 100.541 145.933C100.746 146.158 100.895 146.405 100.99 146.672C101.085 146.939 101.133 147.194 101.133 147.438C101.133 147.919 101.029 148.345 100.82 148.714C100.611 149.084 100.291 149.38 99.8582 149.601L101.611 152.794H99.9946L98.4588 149.784H97.0212V152.794H95.6442L95.6443 145.162ZM89.9737 149.669L88.9721 146.706L87.9585 149.669H89.9737ZM88.2777 145.161H89.7567L92.6369 152.794H91.043L90.3831 150.86H87.5606L86.9007 152.794H85.3979L88.2777 145.161ZM74.9532 145.161H76.2851L78.5679 148.765L80.8167 145.161H82.1482L82.5123 152.794H81.1129L80.8626 147.507L78.8637 150.62H78.1921L76.1822 147.587L75.9323 152.794H74.5891L74.9532 145.161Z" fill="url(#paint1_linear_1_272)"/>
</g>
<g clip-path="url(#clip1_1_272)">
<g filter="url(#filter0_d_1_272)">
<mask id="mask0_1_272" style="mask-type:luminance" maskUnits="userSpaceOnUse" x="0" y="0" width="226" height="100">
<path d="M226 0H0V100H226V0Z" fill="white"/>
</mask>
<g mask="url(#mask0_1_272)">
<path fill-rule="evenodd" clip-rule="evenodd" d="M175.206 0H187.046V2.99369H180.309V35.101H187.046V38.0952H175.206V0Z" fill="white"/>
<path fill-rule="evenodd" clip-rule="evenodd" d="M163.365 0H168.513V38.0952H163.365V0Z" fill="white"/>
<path fill-rule="evenodd" clip-rule="evenodd" d="M138.343 0H152.941C154.151 0 155.133 0.251677 155.886 0.754498C156.639 1.25781 157.016 1.90689 157.016 2.70173V11.5624H151.866V2.99369H139.343V11.027L155.423 23.7335C156.484 24.5774 157.016 25.5267 157.016 26.5815V35.393C157.016 36.1884 156.639 36.8374 155.886 37.3403C155.133 37.8435 154.151 38.0952 152.941 38.0952H138.343C137.132 38.0952 136.138 37.8435 135.36 37.3403C134.582 36.8374 134.193 36.1884 134.193 35.393V25.7293H139.343V35.101H151.866V26.0213L135.861 13.3148C134.749 12.4383 134.193 11.4735 134.193 10.4182V2.70173C134.193 1.90689 134.582 1.25781 135.36 0.754498C136.138 0.251677 137.132 0 138.343 0Z" fill="white"/>
<path fill-rule="evenodd" clip-rule="evenodd" d="M108.453 0H113.566V17.1121L125.633 0H131.189V0.219122L118.165 18.3539L132.477 38.0952H126.848L113.566 19.79V38.0952H108.453V0Z" fill="white"/>
<path fill-rule="evenodd" clip-rule="evenodd" d="M84.4283 0H103.254V2.99369H89.5792V17.2097H102.031V20.2526H89.5792V35.101H103.476V38.0952H84.4283V0Z" fill="white"/>
<path fill-rule="evenodd" clip-rule="evenodd" d="M60.4041 0H79.2293V2.99369H65.5549V17.2097H78.0067V20.2526H65.5549V35.101H79.4519V38.0952H60.4041V0Z" fill="white"/>
<path fill-rule="evenodd" clip-rule="evenodd" d="M31.2317 0H50.5385C51.7416 0 52.724 0.251677 53.4859 0.754498C54.2471 1.25781 54.6281 1.90689 54.6281 2.70173V17.1611C54.6281 18.9952 52.7616 19.9114 49.028 19.9114C48.6596 19.9114 48.1191 19.8993 47.4066 19.875C46.6939 19.8507 46.1777 19.8386 45.8592 19.8386C49.1751 25.9082 52.4784 31.9937 55.7708 38.0952H50.3907L39.6687 17.6966L40.3688 17.015H49.5068V2.99369H36.353V38.0952H31.2317V0Z" fill="white"/>
<path fill-rule="evenodd" clip-rule="evenodd" d="M6.16086 0H21.0502C22.2574 0 23.2544 0.251677 24.0434 0.754498C24.8311 1.25781 25.2256 1.90689 25.2256 2.70173V11.5624H20.0533V2.99369H7.19552V35.101H20.0533V25.7293H25.2256V35.393C25.2256 36.1884 24.8311 36.8374 24.0434 37.3403C23.2544 37.8435 22.2574 38.0952 21.0502 38.0952H6.16086C4.95376 38.0952 3.9678 37.8435 3.20455 37.3403C2.44133 36.8374 2.05933 36.1884 2.05933 35.393V2.70173C2.05933 1.90689 2.44133 1.25781 3.20455 0.754498C3.9678 0.251677 4.95376 0 6.16086 0Z" fill="white"/>
<path fill-rule="evenodd" clip-rule="evenodd" d="M204.893 0H223.718V2.99369H210.044V17.2097H222.494V20.2526H210.044V35.101H223.941V38.0952H204.893V0Z" fill="white"/>
<path fill-rule="evenodd" clip-rule="evenodd" d="M187.046 0H188.351C191.409 0 193.931 0.644706 195.913 1.93507C197.895 3.22498 198.887 4.87682 198.887 6.88864V31.2061C198.887 33.2185 197.888 34.8699 195.894 36.1597C193.898 37.4502 191.384 38.0952 188.351 38.0952H187.046V35.101H187.101C189.083 35.101 190.693 34.7236 191.93 33.969C193.166 33.2146 193.783 32.1798 193.783 30.8656V7.18065C193.783 5.93109 193.19 4.921 192.002 4.14998C190.816 3.37946 189.281 2.99369 187.395 2.99369H187.046V0Z" fill="white"/>
<path fill-rule="evenodd" clip-rule="evenodd" d="M0.00012207 78.2312H6.69258V79.9423H2.97198V87.8013H6.69258V89.4844H2.97198V98.2894H6.69258V99.9999H0.00012207V78.2312Z" fill="white"/>
<path fill-rule="evenodd" clip-rule="evenodd" d="M6.6925 78.2312H10.8253C11.5033 78.2312 12.057 78.3751 12.4865 78.6627C12.9153 78.9499 13.1301 79.3213 13.1301 79.7754V86.2434C13.1301 86.8183 12.7422 87.3003 11.9671 87.6897C11.2059 87.996 10.444 88.3018 9.68281 88.6082L12.1337 89.665C12.8532 89.962 13.2134 90.4254 13.2134 91.0562V98.4562C13.2134 98.9103 12.9986 99.2817 12.5698 99.5688C12.1403 99.8565 11.5866 99.9999 10.9079 99.9999H6.6925V98.2894H10.3059V90.764L7.37809 89.4844H6.6925V87.8013H7.33644L10.2227 86.494V79.9423H6.6925V78.2312Z" fill="white"/>
<path fill-rule="evenodd" clip-rule="evenodd" d="M30.5482 78.2312H31.9181V81.7433L29.0417 93.4654H31.9181V95.1717H28.665L27.5139 99.9999H24.7108V99.9443L30.5482 78.2312Z" fill="white"/>
<path fill-rule="evenodd" clip-rule="evenodd" d="M81.8578 85.7144H84.4246V89.6662H90.4343V91.2863H84.4246V95.2382H81.8578V91.2863H75.8481V89.6662H81.8578V85.7144Z" fill="white"/>
<path fill-rule="evenodd" clip-rule="evenodd" d="M215.189 78.2312H225.875V79.9423H218.113V88.0656H225.18V89.804H218.113V98.2894H226V99.9999H215.189V78.2312Z" fill="white"/>
<path fill-rule="evenodd" clip-rule="evenodd" d="M193.052 78.2312H195.963V98.2894H203.52V99.9999H193.052V78.2312Z" fill="white"/>
<path fill-rule="evenodd" clip-rule="evenodd" d="M170.744 78.2312H173.655V98.2894H181.212V99.9999H170.744V78.2312Z" fill="white"/>
<path fill-rule="evenodd" clip-rule="evenodd" d="M154.614 78.2312H157.531V99.9999H154.614V78.2312Z" fill="white"/>
<path fill-rule="evenodd" clip-rule="evenodd" d="M128.53 78.2312H139.467C140.148 78.2312 140.705 78.3751 141.136 78.6627C141.567 78.9499 141.783 79.3213 141.783 79.7754V88.0377C141.783 89.0858 140.726 89.6098 138.611 89.6098C138.402 89.6098 138.096 89.6025 137.692 89.5887C137.288 89.5746 136.996 89.5676 136.816 89.5676C138.694 93.0363 140.566 96.5137 142.43 99.9999H139.383L133.309 88.344L133.707 87.9545H138.882V79.9423H131.431V99.9999H128.53V78.2312Z" fill="white"/>
<path fill-rule="evenodd" clip-rule="evenodd" d="M104.592 78.2312H113.171C113.852 78.2312 114.41 78.3751 114.841 78.6627C115.272 78.9499 115.488 79.3213 115.488 79.7754V84.8387H112.566V79.9423H105.176V98.2894H112.566V90.764H109.079V89.095H115.488V98.4562C115.488 98.9103 115.272 99.2817 114.841 99.5688C114.41 99.8565 113.852 99.9999 113.171 99.9999H104.592C103.909 99.9999 103.353 99.8565 102.922 99.5688C102.49 99.2817 102.275 98.9103 102.275 98.4562V79.7754C102.275 79.3213 102.49 78.9499 102.922 78.6627C103.353 78.3751 103.909 78.2312 104.592 78.2312Z" fill="white"/>
<path fill-rule="evenodd" clip-rule="evenodd" d="M50.9659 78.2312H61.902C62.5832 78.2312 63.1404 78.3751 63.5713 78.6627C64.0024 78.9499 64.2189 79.3213 64.2189 79.7754V88.0377C64.2189 89.0858 63.161 89.6098 61.0458 89.6098C60.8374 89.6098 60.5312 89.6025 60.1281 89.5887C59.7243 89.5746 59.4323 89.5676 59.2516 89.5676C61.1296 93.0363 63.0009 96.5137 64.8657 99.9999H61.8182L55.7452 88.344L56.1418 87.9545H61.3175V79.9423H53.8665V99.9999H50.9659V78.2312Z" fill="white"/>
<path fill-rule="evenodd" clip-rule="evenodd" d="M31.9181 78.2312H33.4318L39.297 99.9999H36.3753L35.2105 95.1717H31.9181V93.4654H34.8292L31.9289 81.6997L31.9181 81.7433V78.2312Z" fill="white"/>
<path fill-rule="evenodd" clip-rule="evenodd" d="M16.2704 42.6964C20.3615 42.7493 26.9283 43.3891 34.428 44.3231L39.8117 45.0323V47.0212L35.3979 46.3294C27.9418 45.1542 21.6842 44.6843 16.7621 44.754C8.55866 44.8705 4.06526 46.4864 3.9172 48.8367C3.68043 52.5972 14.8055 54.9477 38.7117 54.7911L39.8117 54.7693V57.1653L34.4598 57.2578C27.82 57.3129 21.5069 57.1806 16.2257 56.828C2.14152 55.888 -0.343198 51.1872 0.129709 48.5231C0.603312 45.8595 5.33736 43.1959 14.3318 42.7256C14.894 42.6962 15.543 42.687 16.2704 42.6964Z" fill="white"/>
<path fill-rule="evenodd" clip-rule="evenodd" d="M158.046 44.8979V46.818L156.107 46.8667C143.858 47.4517 132.24 48.7386 121.954 49.6747C115.096 50.2986 105.223 51.3905 95.143 52.5214L89.7085 53.1321L98.9558 54.7054C108.001 56.1874 117.697 57.6303 129.285 59.0342L133.667 59.4966L137.607 58.715C144.856 57.3201 151.864 56.135 157.097 55.4651L158.046 55.3532V57.2692L155.185 57.5195C154.015 57.6447 152.933 57.7862 151.987 57.9422C150.095 58.2541 147.553 58.7221 144.586 59.2998L140.454 60.1214L144.955 60.4551C148.438 60.658 151.591 60.7607 154.403 60.7954L158.046 60.7997V62.4566L157.892 62.4602C156.799 62.4733 155.659 62.4753 154.469 62.4656C149.71 62.4267 144.855 62.1828 140.009 61.8002L134.675 61.3073L134.635 61.3155C127.452 62.8168 119.471 64.5716 112.495 66.2092C98.5421 69.4852 81.9885 71.5131 69.2191 71.9813C56.4488 72.449 52.4288 70.4211 51.4824 70.1093C50.5367 69.7973 49.5912 66.9896 50.7734 66.3653C51.9557 65.7415 51.7191 65.4294 54.32 66.9896C56.9219 68.5493 64.4894 69.1735 77.9685 68.7053C91.4479 68.2371 106.346 65.5855 120.534 62.3095C122.308 61.9002 124.152 61.4883 126.037 61.0798L128.269 60.61L125.604 60.3014C116.16 59.1119 107.173 57.6301 99.4878 56.382C95.6451 55.7582 90.9598 55.0172 85.7833 54.208L83.4037 53.8377L80.2187 54.1935C75.4264 54.7248 70.9332 55.2122 67.0903 55.6022C59.4046 56.3821 50.2115 56.9282 41.181 57.1622L39.8118 57.1859V54.8007L47.4741 54.6495C56.0774 54.3653 64.3191 53.7548 73.2091 52.892L75.677 52.6371L69.13 51.6245C60.4172 50.2791 51.3886 48.8896 43.2285 47.6211L39.8118 47.0874V45.1075L42.1795 45.4182C52.7701 46.8752 64.1046 48.6803 72.5291 50.1428L82.6466 51.915L92.1532 50.852C98.9556 50.0745 106.346 49.2068 114.622 48.2709C131.176 46.399 142.705 45.5019 152.755 45.0729L158.046 44.8979Z" fill="white"/>
<path fill-rule="evenodd" clip-rule="evenodd" d="M168.15 54.8164C174.672 54.9803 180.697 56.03 180.344 57.604C179.93 59.4409 174.993 61.8725 161.025 62.3475L158.046 62.4149V60.7633L158.363 60.7637C164.526 60.6999 168.523 60.3104 170.184 60.0919C173.728 59.6252 175.381 59.1591 175.618 57.7596C175.736 57.0599 171.721 56.7878 166.729 56.8462C164.234 56.8752 161.495 56.9871 158.907 57.1693L158.046 57.2445V55.3348L159.557 55.1567C160.323 55.0754 161.033 55.0098 161.679 54.9611C163.746 54.8055 165.976 54.7618 168.15 54.8164Z" fill="white"/>
<path fill-rule="evenodd" clip-rule="evenodd" d="M182.01 44.7494C203.285 44.7494 220.54 48.6047 223.613 50.918C226.687 53.2312 220.777 52.7685 220.777 52.7685C215.812 51.0722 207.776 49.3756 202.575 48.6047C197.375 47.8338 185.32 46.5999 168.536 46.5999L158.046 46.8603V44.9622L160.07 44.8959C167.217 44.7278 174.032 44.7494 182.01 44.7494Z" fill="white"/>
<path fill-rule="evenodd" clip-rule="evenodd" d="M220.861 52.8819C220.861 52.8819 226.772 53.3501 223.697 51.0103C220.624 48.6705 203.361 44.7713 182.077 44.7713C160.792 44.7713 147.784 44.6152 114.676 48.3589C81.5675 52.1021 62.6487 54.7535 38.7633 54.9096C14.878 55.0655 3.7627 52.7259 3.99927 48.9827C4.2359 45.2395 15.587 43.3679 35.4524 46.4868C55.3175 49.6064 84.1693 53.9737 99.5406 56.4691C114.913 58.9649 135.488 62.396 154.525 62.5519C173.562 62.7081 179.947 59.8228 180.421 57.7169C180.893 55.6115 170.015 54.4414 161.738 55.0655C153.461 55.6893 134.778 59.1208 120.588 62.396C106.399 65.6715 91.5005 68.3227 78.0205 68.7909C64.5408 69.2591 56.9732 68.6349 54.3712 67.0754C51.77 65.5154 52.0065 65.8274 50.8243 66.4511C49.642 67.0754 50.5877 69.8827 51.5334 70.1948C52.4798 70.5065 56.4999 72.5341 69.2707 72.0664C82.0406 71.5984 98.5949 69.5706 112.548 66.2951C126.501 63.0201 144.474 59.2769 152.042 58.029C159.61 56.7812 175.927 56.4691 175.691 57.873C175.455 59.2769 173.799 59.7446 170.252 60.2126C166.704 60.6803 152.514 61.9283 129.339 59.1208C106.163 56.3135 90.554 53.3501 72.5809 50.2305C54.6078 47.1111 23.3913 42.432 14.4047 42.8997C5.4182 43.3679 0.688299 46.0191 0.215111 48.6705C-0.257379 51.3223 2.22515 56.0014 16.2969 56.9371C30.3678 57.873 51.77 57.2492 67.142 55.6893C82.5139 54.1298 108.291 51.0103 122.008 49.7623C135.723 48.5145 151.805 46.6429 168.596 46.6429C185.387 46.6429 197.447 47.8907 202.65 48.6705C207.853 49.4502 215.894 51.1664 220.861 52.8819Z" stroke="white" stroke-width="1.02205" stroke-miterlimit="1"/>
</g>
</g>
</g>
<defs>
<filter id="filter0_d_1_272" x="-4" y="-3" width="234" height="108" filterUnits="userSpaceOnUse" color-interpolation-filters="sRGB">
<feFlood flood-opacity="0" result="BackgroundImageFix"/>
<feColorMatrix in="SourceAlpha" type="matrix" values="0 0 0 0 0 0 0 0 0 0 0 0 0 0 0 0 0 0 127 0" result="hardAlpha"/>
<feOffset dy="1"/>
<feGaussianBlur stdDeviation="2"/>
<feComposite in2="hardAlpha" operator="out"/>
<feColorMatrix type="matrix" values="0 0 0 0 0 0 0 0 0 0 0 0 0 0 0 0 0 0 0.25 0"/>
<feBlend mode="normal" in2="BackgroundImageFix" result="effect1_dropShadow_1_272"/>
<feBlend mode="normal" in="SourceGraphic" in2="effect1_dropShadow_1_272" result="shape"/>
</filter>
<linearGradient id="paint0_linear_1_272" x1="109.627" y1="122.033" x2="109.627" y2="135.618" gradientUnits="userSpaceOnUse">
<stop stop-color="#BABABA"/>
<stop offset="0.510417" stop-color="white"/>
<stop offset="1" stop-color="#BABABA"/>
</linearGradient>
<linearGradient id="paint1_linear_1_272" x1="109.625" y1="144.956" x2="109.625" y2="153" gradientUnits="userSpaceOnUse">
<stop stop-color="#BABABA"/>
<stop offset="0.510417" stop-color="white"/>
<stop offset="1" stop-color="#BABABA"/>
</linearGradient>
<clipPath id="clip0_1_272">
<rect width="176" height="31" fill="white" transform="translate(25 122)"/>
</clipPath>
<clipPath id="clip1_1_272">
<rect width="226" height="100" fill="white"/>
</clipPath>
</defs>
</svg>
