<svg width="321" height="229" viewBox="0 0 321 229" fill="none" xmlns="http://www.w3.org/2000/svg">
<g filter="url(#filter0_d_1_285)">
<mask id="mask0_1_285" style="mask-type:luminance" maskUnits="userSpaceOnUse" x="44" y="179" width="236" height="42">
<path d="M279.4 179H44V220.515H279.4V179Z" fill="white"/>
</mask>
<g mask="url(#mask0_1_285)">
<path d="M246.785 196.874V179.142H256.193L255.338 181.564H249.587V186.593H255.31V189.017H249.587V194.451H256.216V196.874H246.785ZM243.698 181.564H238.859V196.874H236.024V181.564H230.921V179.14H244.47L243.698 181.564ZM213.722 196.874C211.316 196.874 209.604 196.252 208.509 195.173C207.203 193.912 206.801 191.998 206.801 190.14V179.045H209.58V190.009C209.58 191.245 209.928 192.453 210.703 193.289C211.367 194.016 212.386 194.449 213.77 194.449L218.054 194.457L218.052 179.045H220.855V196.875L213.722 196.874ZM224.941 179.142H227.749V196.874H224.941V179.142ZM264.363 197.234C261.932 197.234 260.277 196.425 259.154 195.698L260.33 193.573C261.218 194.191 262.602 194.893 264.26 194.893C265.704 194.893 267.385 194.242 267.385 192.63C267.385 189.911 263.139 189.377 261.001 186.983C260.277 186.172 259.799 185.176 259.799 183.805C259.799 181.224 261.771 179.069 265.331 179.069C267.199 179.069 268.592 179.553 269.499 180.042L269.471 182.675C268.267 181.946 266.909 181.436 265.465 181.436C263.94 181.436 262.685 182.081 262.685 183.482C262.685 186.983 270.385 186.87 270.385 192.309C270.385 195.294 267.761 197.234 264.363 197.234ZM197.972 197.234C195.542 197.234 193.882 196.425 192.761 195.698L193.938 193.573C194.819 194.191 196.208 194.893 197.865 194.893C199.307 194.893 200.995 194.242 200.995 192.63C200.995 189.911 196.743 189.377 194.607 186.983C193.882 186.172 193.404 185.176 193.404 183.805C193.404 181.224 195.38 179.069 198.936 179.069C200.805 179.069 202.193 179.553 203.105 180.042L203.078 182.675C201.873 181.946 200.512 181.436 199.066 181.436C197.542 181.436 196.288 182.081 196.288 183.482C196.288 186.983 203.986 186.87 203.986 192.309C203.986 195.294 201.366 197.234 197.972 197.234ZM104.507 179.197C106.917 179.197 108.631 179.818 109.725 180.9C111.04 182.167 111.441 184.082 111.441 185.942V197.051H108.654V186.071C108.654 184.829 108.306 183.619 107.53 182.786C106.863 182.057 105.843 181.626 104.452 181.626L100.167 181.614L100.171 197.051H97.3605V179.197H104.507ZM175.056 196.965V179.209H177.84V194.538H183.896L184.293 196.964L175.056 196.965ZM162.481 196.964V179.207H165.263V194.537H171.319L171.714 196.964H162.481ZM154.668 179.206H157.479V196.961H154.668V179.206ZM146.851 196.964V189.175H137.939V196.964H135.129V179.207H137.939V186.696H146.851V179.207H149.665V196.964H146.851ZM123.888 197.233C118.503 197.233 115.053 193.436 115.053 188.314C115.053 182.953 118.88 179.044 124.63 179.044C126.884 179.044 128.598 179.554 129.747 180.042L129.72 182.759C128.435 182.091 126.753 181.444 124.823 181.444C120.246 181.444 118.072 184.355 118.072 188.046C118.072 192.03 120.565 194.834 124.61 194.834C125.919 194.834 126.937 194.591 127.582 194.241V188.125H130.392V195.671C128.973 196.424 126.646 197.233 123.888 197.233ZM89.4671 179.207H92.277V196.964H89.4671V179.207ZM82.8835 196.966C80.1272 192.385 78.7613 189.961 78.0639 189.768H76.4271V196.966H73.6224V179.21H78.0133C82.4286 179.21 84.1125 181.446 84.1125 184.166C84.1125 186.592 82.5321 188.154 80.7933 188.856V188.88C81.5156 189.259 83.3923 192.413 86.1479 196.966H82.8835ZM78.0375 181.659H76.4271V187.561H78.0939C79.9118 187.561 81.2512 186.162 81.2512 184.458C81.2512 182.926 80.314 181.659 78.0375 181.659ZM63.1035 190.66H62.0601V196.965H59.2496V179.209H63.4493C67.2266 179.209 69.6612 181.203 69.6612 184.837C69.6612 187.508 67.8662 190.66 63.1035 190.66ZM63.1856 181.662H62.0601V188.37H63.2895C65.7009 188.37 66.7701 186.991 66.7701 184.922C66.7701 183.008 65.5655 181.662 63.1856 181.662ZM49.2147 197.235C46.7785 197.235 45.116 196.425 43.9934 195.695L45.1716 193.57C46.0522 194.185 47.4446 194.891 49.1077 194.891C50.5513 194.891 52.2372 194.242 52.2372 192.626C52.2372 189.905 47.9816 189.368 45.8392 186.969C45.1158 186.16 44.6376 185.163 44.6376 183.789C44.6376 181.203 46.6142 179.047 50.1755 179.047C52.051 179.047 53.4419 179.527 54.3487 180.015L54.324 182.654C53.1241 181.931 51.7583 181.418 50.314 181.418C48.7849 181.418 47.5255 182.064 47.5255 183.466C47.5255 186.969 55.2402 186.859 55.2402 192.306C55.2402 195.295 52.6149 197.237 49.2166 197.237" fill="url(#paint0_linear_1_285)"/>
<path d="M276.284 185.291C274.561 185.291 273.158 183.887 273.158 182.146C273.158 180.405 274.561 179 276.284 179C278.012 179 279.408 180.405 279.408 182.146C279.408 183.887 278.012 185.291 276.284 185.291ZM276.284 179.315C274.736 179.315 273.476 180.59 273.476 182.146C273.476 183.709 274.736 184.975 276.284 184.975C277.835 184.975 279.095 183.709 279.095 182.146C279.095 180.59 277.835 179.315 276.284 179.315ZM277.265 183.671C277.158 183.671 277.066 183.658 276.995 183.569L276.098 182.349H275.808V183.671H275.448V180.733H276.464C277.197 180.733 277.315 181.282 277.315 181.507C277.315 181.907 277.003 182.262 276.498 182.324L277.422 183.541C277.465 183.601 277.499 183.635 277.552 183.671H277.265ZM276.269 181.011H275.808V182.065H276.213C276.615 182.065 276.952 181.921 276.952 181.507C276.952 181.011 276.478 181.011 276.269 181.011Z" fill="white"/>
<path d="M198.687 211.719H195.247V210.018H204.047V211.719H200.607V220.239H198.687V211.719ZM186.638 211.719H183.198V210.018H191.996V211.719H188.556V220.239H186.638V211.719ZM175.408 218.692C175.906 218.692 176.358 218.594 176.764 218.4C177.168 218.206 177.515 217.943 177.8 217.611C178.083 217.279 178.301 216.893 178.454 216.454C178.606 216.014 178.681 215.556 178.681 215.075C178.681 214.585 178.606 214.121 178.454 213.687C178.301 213.254 178.083 212.873 177.8 212.545C177.515 212.218 177.168 211.961 176.764 211.772C176.358 211.584 175.906 211.489 175.408 211.489C174.901 211.489 174.446 211.584 174.046 211.772C173.645 211.961 173.303 212.218 173.019 212.545C172.734 212.873 172.516 213.254 172.365 213.687C172.213 214.121 172.135 214.585 172.135 215.075C172.135 215.556 172.213 216.014 172.365 216.454C172.516 216.893 172.734 217.279 173.019 217.611C173.303 217.943 173.645 218.206 174.046 218.4C174.446 218.594 174.901 218.692 175.408 218.692ZM175.408 220.515C174.668 220.515 173.977 220.375 173.339 220.093C172.698 219.813 172.142 219.427 171.664 218.936C171.187 218.446 170.811 217.874 170.537 217.22C170.263 216.567 170.126 215.866 170.126 215.12C170.126 214.374 170.263 213.675 170.537 213.021C170.811 212.367 171.186 211.798 171.658 211.313C172.129 210.827 172.685 210.444 173.331 210.163C173.976 209.882 174.668 209.741 175.408 209.741C176.149 209.741 176.839 209.882 177.48 210.163C178.119 210.444 178.677 210.827 179.154 211.313C179.631 211.798 180.008 212.367 180.282 213.021C180.553 213.675 180.691 214.374 180.691 215.12C180.691 215.866 180.553 216.567 180.282 217.22C180.008 217.874 179.631 218.446 179.154 218.936C178.677 219.427 178.119 219.813 177.48 220.093C176.839 220.375 176.149 220.515 175.408 220.515ZM163.585 210.018H165.503V220.239H163.585V210.018ZM154.657 214.616C155.144 214.616 155.522 214.471 155.79 214.186C156.06 213.899 156.195 213.552 156.195 213.144C156.195 212.705 156.052 212.346 155.768 212.071C155.483 211.795 155.113 211.657 154.657 211.657H152.645V214.616H154.657ZM150.802 210.018H154.642C155.281 210.018 155.824 210.116 156.27 210.309C156.717 210.502 157.078 210.751 157.35 211.052C157.625 211.353 157.825 211.683 157.952 212.04C158.079 212.398 158.142 212.739 158.142 213.066C158.142 213.71 158.003 214.281 157.725 214.776C157.445 215.27 157.016 215.667 156.437 215.964L158.783 220.239H156.622L154.566 216.208H152.645V220.239H150.803L150.802 210.018ZM142.342 214.614C142.828 214.614 143.206 214.471 143.477 214.186C143.744 213.899 143.879 213.551 143.879 213.142C143.879 212.705 143.737 212.346 143.454 212.071C143.169 211.795 142.798 211.656 142.342 211.656H140.328V214.614H142.342ZM138.486 210.018H142.328C142.966 210.018 143.51 210.115 143.955 210.309C144.401 210.502 144.762 210.751 145.036 211.051C145.31 211.352 145.51 211.683 145.637 212.04C145.764 212.398 145.828 212.739 145.828 213.066C145.828 213.71 145.689 214.279 145.409 214.775C145.13 215.27 144.702 215.667 144.123 215.963L146.467 220.239H144.306L142.251 216.208H140.328V220.239H138.486V210.018ZM130.903 216.054L129.563 212.086L128.206 216.054H130.903ZM128.634 210.017H130.613L134.465 220.239H132.333L131.45 217.649H127.675L126.793 220.239H124.782L128.634 210.017ZM110.812 210.017H112.594L115.647 214.843L118.655 210.017H120.435L120.922 220.239H119.051L118.717 213.158L116.043 217.327H115.144L112.456 213.266L112.122 220.239H110.325L110.812 210.017Z" fill="url(#paint1_linear_1_285)"/>
</g>
</g>
<g clip-path="url(#clip0_1_285)">
<g filter="url(#filter1_d_1_285)">
<mask id="mask1_1_285" style="mask-type:luminance" maskUnits="userSpaceOnUse" x="16" y="15" width="291" height="129">
<path d="M307 15H16V144H307V15Z" fill="white"/>
</mask>
<g mask="url(#mask1_1_285)">
<path fill-rule="evenodd" clip-rule="evenodd" d="M241.597 15H256.843V18.8619H248.168V60.2803H256.843V64.1429H241.597V15Z" fill="white"/>
<path fill-rule="evenodd" clip-rule="evenodd" d="M226.351 15H232.98V64.1429H226.351V15Z" fill="white"/>
<path fill-rule="evenodd" clip-rule="evenodd" d="M194.132 15H212.928C214.486 15 215.75 15.3247 216.721 15.9733C217.69 16.6226 218.175 17.4599 218.175 18.4852V29.9154H211.545V18.8619H195.42V29.2248L216.125 45.6162C217.491 46.7048 218.175 47.9294 218.175 49.2901V60.657C218.175 61.6831 217.69 62.5203 216.721 63.169C215.75 63.8182 214.486 64.1429 212.928 64.1429H194.132C192.573 64.1429 191.293 63.8182 190.292 63.169C189.289 62.5203 188.788 61.6831 188.788 60.657V48.1907H195.42V60.2803H211.545V48.5674L190.935 32.1761C189.504 31.0455 188.788 29.8008 188.788 28.4395V18.4852C188.788 17.4599 189.289 16.6226 190.292 15.9733C191.293 15.3247 192.573 15 194.132 15Z" fill="white"/>
<path fill-rule="evenodd" clip-rule="evenodd" d="M155.645 15H162.229V37.0746L177.767 15H184.92V15.2827L168.15 38.6765L186.579 64.1429H179.331L162.229 40.5291V64.1429H155.645V15Z" fill="white"/>
<path fill-rule="evenodd" clip-rule="evenodd" d="M124.711 15H148.95V18.8619H131.343V37.2005H147.376V41.1258H131.343V60.2803H149.237V64.1429H124.711V15Z" fill="white"/>
<path fill-rule="evenodd" clip-rule="evenodd" d="M93.7769 15H118.016V18.8619H100.409V37.2005H116.442V41.1258H100.409V60.2803H118.303V64.1429H93.7769V15Z" fill="white"/>
<path fill-rule="evenodd" clip-rule="evenodd" d="M56.2141 15H81.0737C82.6229 15 83.8878 15.3247 84.8689 15.9733C85.849 16.6226 86.3396 17.4599 86.3396 18.4852V37.1378C86.3396 39.5039 83.9362 40.6857 79.1289 40.6857C78.6545 40.6857 77.9585 40.6701 77.041 40.6387C76.1234 40.6074 75.4588 40.5918 75.0487 40.5918C79.3182 48.4215 83.5716 56.2719 87.8109 64.1429H80.8835L67.0777 37.8286L67.9792 36.9493H79.7453V18.8619H62.8083V64.1429H56.2141V15Z" fill="white"/>
<path fill-rule="evenodd" clip-rule="evenodd" d="M23.9328 15H43.1044C44.6589 15 45.9426 15.3247 46.9586 15.9733C47.9728 16.6226 48.4807 17.4599 48.4807 18.4852V29.9154H41.8209V18.8619H25.265V60.2803H41.8209V48.1907H48.4807V60.657C48.4807 61.6831 47.9728 62.5203 46.9586 63.169C45.9426 63.8182 44.6589 64.1429 43.1044 64.1429H23.9328C22.3785 64.1429 21.109 63.8182 20.1262 63.169C19.1435 62.5203 18.6516 61.6831 18.6516 60.657V18.4852C18.6516 17.4599 19.1435 16.6226 20.1262 15.9733C21.109 15.3247 22.3785 15 23.9328 15Z" fill="white"/>
<path fill-rule="evenodd" clip-rule="evenodd" d="M279.822 15H304.061V18.8619H286.456V37.2005H302.486V41.1258H286.456V60.2803H304.349V64.1429H279.822V15Z" fill="white"/>
<path fill-rule="evenodd" clip-rule="evenodd" d="M256.843 15H258.522C262.46 15 265.708 15.8317 268.26 17.4962C270.812 19.1602 272.089 21.2911 272.089 23.8863V55.2559C272.089 57.8519 270.803 59.9822 268.235 61.646C265.666 63.3107 262.429 64.1429 258.522 64.1429H256.843V60.2803H256.914C259.466 60.2803 261.538 59.7935 263.131 58.8201C264.722 57.8469 265.518 56.5119 265.518 54.8167V24.263C265.518 22.6511 264.753 21.3481 263.224 20.3535C261.697 19.3595 259.72 18.8619 257.291 18.8619H256.843V15Z" fill="white"/>
<path fill-rule="evenodd" clip-rule="evenodd" d="M16.0001 115.918H24.6174V118.126H19.8267V128.264H24.6174V130.435H19.8267V141.793H24.6174V144H16.0001V115.918Z" fill="white"/>
<path fill-rule="evenodd" clip-rule="evenodd" d="M24.6173 115.918H29.9388C30.8117 115.918 31.5246 116.104 32.0778 116.475C32.6299 116.845 32.9065 117.325 32.9065 117.91V126.254C32.9065 126.996 32.407 127.617 31.409 128.12C30.4289 128.515 29.4478 128.909 28.4677 129.305L31.6234 130.668C32.5499 131.051 33.0137 131.649 33.0137 132.463V142.009C33.0137 142.594 32.7371 143.073 32.185 143.444C31.6319 143.815 30.919 144 30.0451 144H24.6173V141.793H29.27V132.086L25.5001 130.435H24.6173V128.264H25.4464L29.1628 126.577V118.126H24.6173V115.918Z" fill="white"/>
<path fill-rule="evenodd" clip-rule="evenodd" d="M55.3342 115.918H57.0981V120.449L53.3944 135.57H57.0981V137.772H52.9094L51.4272 144H47.8179V143.928L55.3342 115.918Z" fill="white"/>
<path fill-rule="evenodd" clip-rule="evenodd" d="M121.401 125.571H124.706V130.669H132.444V132.759H124.706V137.857H121.401V132.759H113.663V130.669H121.401V125.571Z" fill="white"/>
<path fill-rule="evenodd" clip-rule="evenodd" d="M293.08 115.918H306.839V118.126H296.845V128.605H305.944V130.847H296.845V141.793H307V144H293.08V115.918Z" fill="white"/>
<path fill-rule="evenodd" clip-rule="evenodd" d="M264.576 115.918H268.324V141.793H278.055V144H264.576V115.918Z" fill="white"/>
<path fill-rule="evenodd" clip-rule="evenodd" d="M235.852 115.918H239.599V141.793H249.33V144H235.852V115.918Z" fill="white"/>
<path fill-rule="evenodd" clip-rule="evenodd" d="M215.082 115.918H218.838V144H215.082V115.918Z" fill="white"/>
<path fill-rule="evenodd" clip-rule="evenodd" d="M181.497 115.918H195.579C196.456 115.918 197.173 116.104 197.728 116.475C198.283 116.845 198.561 117.325 198.561 117.91V128.569C198.561 129.921 197.2 130.597 194.477 130.597C194.208 130.597 193.814 130.587 193.294 130.569C192.774 130.551 192.398 130.542 192.165 130.542C194.584 135.017 196.994 139.503 199.394 144H195.471L187.65 128.964L188.162 128.461H194.826V118.126H185.233V144H181.497V115.918Z" fill="white"/>
<path fill-rule="evenodd" clip-rule="evenodd" d="M150.673 115.918H161.72C162.597 115.918 163.315 116.104 163.87 116.475C164.426 116.845 164.704 117.325 164.704 117.91V124.442H160.941V118.126H151.426V141.793H160.941V132.086H156.452V129.933H164.704V142.009C164.704 142.594 164.426 143.073 163.87 143.444C163.315 143.815 162.597 144 161.72 144H150.673C149.795 144 149.078 143.815 148.523 143.444C147.967 143.073 147.69 142.594 147.69 142.009V117.91C147.69 117.325 147.967 116.845 148.523 116.475C149.078 116.104 149.795 115.918 150.673 115.918Z" fill="white"/>
<path fill-rule="evenodd" clip-rule="evenodd" d="M81.6241 115.918H95.7055C96.5827 115.918 97.3001 116.104 97.855 116.475C98.41 116.845 98.6889 117.325 98.6889 117.91V128.569C98.6889 129.921 97.3267 130.597 94.6031 130.597C94.3347 130.597 93.9405 130.587 93.4215 130.569C92.9016 130.551 92.5255 130.542 92.2928 130.542C94.711 135.017 97.1205 139.503 99.5216 144H95.5977L87.778 128.964L88.2886 128.461H94.9529V118.126H85.359V144H81.6241V115.918Z" fill="white"/>
<path fill-rule="evenodd" clip-rule="evenodd" d="M57.098 115.918H59.0471L66.5992 144H62.8372L61.3373 137.772H57.098V135.57H60.8463L57.1119 120.393L57.098 120.449V115.918Z" fill="white"/>
<path fill-rule="evenodd" clip-rule="evenodd" d="M36.9499 70.0784C42.2176 70.1466 50.6732 70.972 60.3299 72.1768L67.262 73.0917V75.6574L61.5788 74.7649C51.9782 73.249 43.9208 72.6428 37.5831 72.7328C27.0202 72.883 21.2345 74.9674 21.0438 77.9994C20.739 82.8505 35.0637 85.8826 65.8456 85.6806L67.262 85.6525V88.7432L60.3708 88.8626C51.8213 88.9337 43.6925 88.763 36.8923 88.3082C18.7574 87.0956 15.5581 81.0315 16.167 77.5948C16.7768 74.1588 22.8725 70.7227 34.4538 70.1161C35.1777 70.0782 36.0134 70.0663 36.9499 70.0784Z" fill="white"/>
<path fill-rule="evenodd" clip-rule="evenodd" d="M219.501 72.9184V75.3953L217.004 75.458C201.232 76.2127 186.274 77.8728 173.029 79.0803C164.199 79.8853 151.486 81.2937 138.507 82.7527L131.51 83.5405L143.416 85.57C155.064 87.4818 167.548 89.3431 182.468 91.1541L188.112 91.7506L193.184 90.7423C202.518 88.9429 211.541 87.4142 218.28 86.5501L219.501 86.4057V88.8773L215.818 89.2003C214.312 89.3617 212.918 89.5443 211.7 89.7454C209.264 90.1478 205.991 90.7516 202.17 91.4968L196.85 92.5567L202.645 92.9871C207.131 93.2488 211.191 93.3813 214.811 93.4261L219.501 93.4316V95.5691L219.303 95.5737C217.896 95.5906 216.428 95.5932 214.896 95.5807C208.768 95.5305 202.517 95.2159 196.277 94.7223L189.409 94.0865L189.357 94.097C180.109 96.0338 169.832 98.2974 160.849 100.41C142.884 104.636 121.569 107.252 105.127 107.856C88.6839 108.459 83.5078 105.843 82.2892 105.441C81.0715 105.039 79.8541 101.417 81.3762 100.611C82.8986 99.8066 82.5939 99.404 85.943 101.417C89.2931 103.429 99.0371 104.234 116.393 103.63C133.749 103.026 152.932 99.6054 171.201 95.3793C173.485 94.8513 175.859 94.3199 178.286 93.7929L181.161 93.187L177.729 92.7888C165.568 91.2544 153.997 89.3429 144.101 87.7328C139.154 86.9281 133.121 85.9722 126.455 84.9283L123.391 84.4507L119.29 84.9097C113.12 85.5951 107.334 86.2238 102.386 86.7269C92.4899 87.733 80.6528 88.4375 69.025 88.7393L67.262 88.7698V85.6929L77.1281 85.4979C88.2058 85.1313 98.8179 84.3437 110.265 83.2307L113.442 82.9019L105.012 81.5956C93.7938 79.86 82.1684 78.0676 71.6614 76.4312L67.262 75.7428V73.1887L70.3107 73.5895C83.9473 75.469 98.5417 77.7976 109.389 79.6843L122.417 81.9703L134.657 80.5992C143.416 79.5961 152.932 78.4768 163.589 77.2695C184.904 74.8547 199.748 73.6974 212.689 73.1441L219.501 72.9184Z" fill="white"/>
<path fill-rule="evenodd" clip-rule="evenodd" d="M232.512 85.7133C240.91 85.9248 248.667 87.2788 248.212 89.3093C247.68 91.6789 241.323 94.8157 223.338 95.4284L219.501 95.5153V93.3848L219.91 93.3853C227.845 93.303 232.992 92.8006 235.131 92.5187C239.694 91.9167 241.822 91.3154 242.127 89.51C242.28 88.6075 237.109 88.2564 230.682 88.3317C227.469 88.3692 223.942 88.5136 220.61 88.7485L219.501 88.8455V86.382L221.448 86.1523C222.434 86.0474 223.347 85.9627 224.179 85.9C226.841 85.6992 229.712 85.6429 232.512 85.7133Z" fill="white"/>
<path fill-rule="evenodd" clip-rule="evenodd" d="M250.358 72.7269C277.752 72.7269 299.969 77.7002 303.927 80.6843C307.884 83.6684 300.274 83.0714 300.274 83.0714C293.882 80.8833 283.534 78.6947 276.837 77.7002C270.142 76.7057 254.62 75.114 233.009 75.114L219.501 75.4499V73.0013L222.108 72.9158C231.311 72.699 240.086 72.7269 250.358 72.7269Z" fill="white"/>
<path fill-rule="evenodd" clip-rule="evenodd" d="M300.382 83.2175C300.382 83.2175 307.994 83.8215 304.035 80.8032C300.077 77.7848 277.849 72.7549 250.444 72.7549C223.037 72.7549 206.289 72.5535 163.658 77.3829C121.027 82.2116 96.6671 85.6319 65.912 85.8333C35.157 86.0345 20.8449 83.0163 21.1495 78.1876C21.4542 73.3589 36.07 70.9445 61.6488 74.9679C87.2274 78.9921 124.377 84.626 144.17 87.8451C163.963 91.0646 190.455 95.4907 214.967 95.6919C239.48 95.8933 247.702 92.1714 248.312 89.4547C248.919 86.7387 234.913 85.2293 224.255 86.0345C213.598 86.8392 189.541 91.2658 171.271 95.4907C153.001 99.7161 133.817 103.136 116.46 103.74C99.1034 104.344 89.3592 103.539 86.0088 101.527C82.6596 99.5147 82.9641 99.9173 81.4419 100.722C79.9195 101.527 81.1372 105.149 82.3549 105.551C83.5735 105.953 88.7498 108.569 105.194 107.966C121.636 107.362 142.952 104.746 160.918 100.521C178.884 96.2959 202.027 91.4672 211.771 89.8573C221.515 88.2476 242.525 87.8451 242.222 89.6561C241.917 91.4672 239.785 92.0705 235.218 92.6742C230.65 93.2775 212.379 94.8874 182.538 91.2658C152.696 87.6443 132.598 83.8215 109.456 79.7973C86.3135 75.7733 46.1189 69.7372 34.5477 70.3406C22.9765 70.9445 16.8862 74.3646 16.277 77.7848C15.6686 81.2057 18.8651 87.2417 36.9841 88.4488C55.1019 89.6561 82.6596 88.8514 102.453 86.8392C122.246 84.8274 155.437 80.8032 173.098 79.1933C190.759 77.5836 211.466 75.1693 233.086 75.1693C254.706 75.1693 270.235 76.7789 276.934 77.7848C283.634 78.7907 293.988 81.0046 300.382 83.2175Z" stroke="white" stroke-width="1.02205" stroke-miterlimit="1"/>
</g>
</g>
</g>
<defs>
<filter id="filter0_d_1_285" x="40" y="176" width="243.4" height="49.5146" filterUnits="userSpaceOnUse" color-interpolation-filters="sRGB">
<feFlood flood-opacity="0" result="BackgroundImageFix"/>
<feColorMatrix in="SourceAlpha" type="matrix" values="0 0 0 0 0 0 0 0 0 0 0 0 0 0 0 0 0 0 127 0" result="hardAlpha"/>
<feOffset dy="1"/>
<feGaussianBlur stdDeviation="2"/>
<feComposite in2="hardAlpha" operator="out"/>
<feColorMatrix type="matrix" values="0 0 0 0 0 0 0 0 0 0 0 0 0 0 0 0 0 0 0.25 0"/>
<feBlend mode="normal" in2="BackgroundImageFix" result="effect1_dropShadow_1_285"/>
<feBlend mode="normal" in="SourceGraphic" in2="effect1_dropShadow_1_285" result="shape"/>
</filter>
<filter id="filter1_d_1_285" x="12" y="12" width="299" height="137" filterUnits="userSpaceOnUse" color-interpolation-filters="sRGB">
<feFlood flood-opacity="0" result="BackgroundImageFix"/>
<feColorMatrix in="SourceAlpha" type="matrix" values="0 0 0 0 0 0 0 0 0 0 0 0 0 0 0 0 0 0 127 0" result="hardAlpha"/>
<feOffset dy="1"/>
<feGaussianBlur stdDeviation="2"/>
<feComposite in2="hardAlpha" operator="out"/>
<feColorMatrix type="matrix" values="0 0 0 0 0 0 0 0 0 0 0 0 0 0 0 0 0 0 0.25 0"/>
<feBlend mode="normal" in2="BackgroundImageFix" result="effect1_dropShadow_1_285"/>
<feBlend mode="normal" in="SourceGraphic" in2="effect1_dropShadow_1_285" result="shape"/>
</filter>
<linearGradient id="paint0_linear_1_285" x1="157.189" y1="179.044" x2="157.189" y2="197.237" gradientUnits="userSpaceOnUse">
<stop stop-color="#BABABA"/>
<stop offset="0.510417" stop-color="white"/>
<stop offset="1" stop-color="#BABABA"/>
</linearGradient>
<linearGradient id="paint1_linear_1_285" x1="157.186" y1="209.741" x2="157.186" y2="220.515" gradientUnits="userSpaceOnUse">
<stop stop-color="#BABABA"/>
<stop offset="0.510417" stop-color="white"/>
<stop offset="1" stop-color="#BABABA"/>
</linearGradient>
<clipPath id="clip0_1_285">
<rect width="291" height="129" fill="white" transform="translate(16 15)"/>
</clipPath>
</defs>
</svg>
