<svg width="321" height="229" viewBox="0 0 321 229" fill="none" xmlns="http://www.w3.org/2000/svg">
<path d="M24.271 102.589C21.2746 102.589 18.5347 101.832 16.0514 100.318C13.5949 98.8047 11.6378 96.7777 10.1802 94.237C8.74951 91.6694 8.03418 88.818 8.03418 85.6827L8.11515 59.7767C8.11515 56.6955 8.81699 53.9117 10.2207 51.4251C11.6244 48.9115 13.5544 46.898 16.0108 45.3844C18.4943 43.8439 21.2477 43.0736 24.271 43.0736C27.3483 43.0736 30.0882 43.8169 32.4906 45.3033C34.92 46.7898 36.85 48.8034 38.2808 51.344C39.7384 53.8576 40.4673 56.6686 40.4673 59.7767V63.5876C40.4673 63.8039 40.3592 63.9119 40.1434 63.9119H30.8305C30.6145 63.9119 30.5065 63.8039 30.5065 63.5876V59.7767C30.5065 57.9388 29.9127 56.3577 28.725 55.0333C27.5372 53.709 26.0525 53.0468 24.271 53.0468C22.3004 53.0468 20.7888 53.7225 19.736 55.0739C18.6833 56.4252 18.1569 57.9929 18.1569 59.7767V85.6827C18.1569 87.7099 18.7507 89.3721 19.9384 90.6695C21.1261 91.9397 22.5703 92.5748 24.271 92.5748C26.0525 92.5748 27.5372 91.8722 28.725 90.4667C29.9127 89.0342 30.5065 87.4396 30.5065 85.6827V81.8314C30.5065 81.6151 30.6145 81.507 30.8305 81.507H40.2243C40.4403 81.507 40.5482 81.6151 40.5482 81.8314V85.6827C40.5482 88.791 39.8194 91.6288 38.3617 94.1966C36.877 96.7371 34.92 98.7778 32.4906 100.318C30.0611 101.832 27.3213 102.589 24.271 102.589ZM56.2992 101.778H46.9052C46.6893 101.778 46.5813 101.643 46.5813 101.372L46.7432 44.3303C46.7432 44.1142 46.8513 44.0061 47.0672 44.0061H63.8303C66.8267 44.0061 69.5801 44.7358 72.0905 46.1952C74.601 47.6548 76.5985 49.6143 78.0832 52.0738C79.5948 54.5334 80.3506 57.3171 80.3506 60.4254C80.3506 62.4525 80.0402 64.2904 79.4193 65.9391C78.7984 67.5877 78.0696 68.9797 77.2328 70.1148C76.423 71.25 75.6807 72.0879 75.0058 72.6284C78.0021 75.9528 79.5004 79.8584 79.5004 84.3449L79.5813 101.372C79.5813 101.643 79.4463 101.778 79.1764 101.778H69.7825C69.5666 101.778 69.4585 101.697 69.4585 101.535V84.3449C69.4585 82.3448 68.7568 80.6151 67.3531 79.1556C65.9493 77.6961 64.2218 76.9664 62.1702 76.9664H56.704L56.6231 101.372C56.6231 101.643 56.515 101.778 56.2992 101.778ZM63.8303 53.9387H56.704V66.9931H63.8303C65.531 66.9931 67.0426 66.358 68.3654 65.0876C69.7151 63.8174 70.3898 62.2633 70.3898 60.4254C70.3898 58.6685 69.7421 57.155 68.4463 55.8848C67.1507 54.5874 65.612 53.9387 63.8303 53.9387ZM113.715 101.778H86.9101C86.6941 101.778 86.5862 101.643 86.5862 101.372L86.6672 44.3303C86.6672 44.1142 86.7752 44.0061 86.991 44.0061H113.634C113.85 44.0061 113.958 44.1412 113.958 44.4115V53.6955C113.958 53.9117 113.85 54.0198 113.634 54.0198H96.6278V66.9931H113.634C113.85 66.9931 113.958 67.1012 113.958 67.3175L114.039 76.7231C114.039 76.9394 113.931 77.0474 113.715 77.0474H96.6278V91.5613H113.715C113.931 91.5613 114.039 91.6965 114.039 91.9667V101.453C114.039 101.67 113.931 101.778 113.715 101.778ZM148.537 101.778H121.732C121.516 101.778 121.408 101.643 121.408 101.372L121.489 44.3303C121.489 44.1142 121.597 44.0061 121.813 44.0061H148.456C148.673 44.0061 148.78 44.1412 148.78 44.4115V53.6955C148.78 53.9117 148.673 54.0198 148.456 54.0198H131.45V66.9931H148.456C148.673 66.9931 148.78 67.1012 148.78 67.3175L148.861 76.7231C148.861 76.9394 148.753 77.0474 148.537 77.0474H131.45V91.5613H148.537C148.753 91.5613 148.861 91.6965 148.861 91.9667V101.453C148.861 101.67 148.753 101.778 148.537 101.778ZM165.948 101.778H156.554C156.338 101.778 156.231 101.643 156.231 101.372L156.393 44.4115C156.393 44.1412 156.5 44.0061 156.716 44.0061H166.029C166.245 44.0061 166.353 44.1412 166.353 44.4115V64.0741L179.351 44.3303C179.566 44.1142 179.769 44.0061 179.958 44.0061H189.473C189.716 44.0061 189.77 44.1142 189.635 44.3303L175.301 67.2363L191.376 101.453C191.511 101.67 191.376 101.778 190.971 101.778H180.849C180.579 101.778 180.417 101.67 180.363 101.453L169.147 77.0474L166.271 81.5881V101.372C166.271 101.643 166.164 101.778 165.948 101.778ZM209.192 102.589C206.249 102.589 203.537 101.832 201.053 100.318C198.597 98.8047 196.626 96.7912 195.141 94.2776C193.685 91.737 192.956 88.9532 192.956 85.9261V82.1152C192.956 81.8179 193.091 81.6692 193.36 81.6692H202.673C202.889 81.6692 202.996 81.8179 202.996 82.1152V85.9261C202.996 87.7369 203.605 89.3046 204.819 90.6289C206.034 91.9263 207.492 92.5748 209.192 92.5748C210.92 92.5748 212.391 91.9127 213.605 90.5883C214.82 89.2369 215.427 87.6828 215.427 85.9261C215.427 83.899 214.104 82.1287 211.46 80.6151C211.028 80.3448 210.461 80.0205 209.759 79.6421C209.085 79.2367 208.274 78.7773 207.33 78.2637C206.384 77.7501 205.467 77.2502 204.576 76.7637C203.685 76.2501 202.821 75.7636 201.985 75.3041C198.961 73.5203 196.707 71.2906 195.223 68.6147C193.765 65.912 193.036 62.8849 193.036 59.5335C193.036 56.4523 193.792 53.6684 195.303 51.1819C196.816 48.7224 198.786 46.7763 201.215 45.3439C203.672 43.8844 206.331 43.1546 209.192 43.1546C212.134 43.1546 214.833 43.8844 217.29 45.3439C219.747 46.8304 221.704 48.8034 223.162 51.263C224.647 53.7225 225.389 56.4793 225.389 59.5335V66.3444C225.389 66.5607 225.281 66.6688 225.064 66.6688H215.752C215.535 66.6688 215.427 66.5607 215.427 66.3444L215.347 59.5335C215.347 57.5875 214.74 56.0064 213.525 54.7901C212.309 53.5739 210.866 52.9657 209.192 52.9657C207.492 52.9657 206.034 53.6144 204.819 54.9117C203.605 56.2091 202.996 57.7496 202.996 59.5335C202.996 61.3443 203.375 62.8579 204.131 64.0741C204.913 65.2904 206.331 66.4525 208.383 67.5607C208.598 67.6687 209.098 67.9391 209.881 68.3715C210.663 68.804 211.527 69.2905 212.471 69.831C213.444 70.3446 214.321 70.8176 215.103 71.25C215.886 71.6554 216.359 71.8987 216.521 71.9797C219.274 73.5203 221.447 75.4123 223.04 77.6556C224.66 79.8988 225.469 82.6557 225.469 85.9261C225.469 89.0883 224.74 91.9263 223.282 94.4398C221.798 96.9534 219.828 98.94 217.372 100.399C214.915 101.859 212.189 102.589 209.192 102.589ZM241.018 101.778H231.624C231.354 101.778 231.219 101.643 231.219 101.372L231.301 44.3303C231.301 44.1142 231.408 44.0061 231.624 44.0061H240.937C241.153 44.0061 241.261 44.1142 241.261 44.3303L241.341 101.372C241.341 101.643 241.234 101.778 241.018 101.778ZM263.895 101.697L249.035 101.778C248.766 101.778 248.631 101.643 248.631 101.372L248.792 44.3303C248.792 44.1142 248.899 44.0061 249.116 44.0061L264.624 43.9249C267.701 43.8439 270.481 44.5466 272.965 46.0331C275.476 47.5196 277.472 49.5331 278.957 52.0738C280.47 54.5874 281.225 57.3712 281.225 60.4254V84.2639C281.225 87.4531 280.456 90.3721 278.917 93.0208C277.352 95.6425 275.274 97.7371 272.681 99.3048C270.091 100.845 267.162 101.643 263.895 101.697ZM264.624 53.8576L258.834 53.9387L258.753 91.5613H263.895C265.947 91.5613 267.674 90.8452 269.078 89.4126C270.481 87.9801 271.184 86.2639 271.184 84.2639V60.3442C271.184 58.5875 270.536 57.0604 269.24 55.763C267.944 54.4387 266.406 53.8035 264.624 53.8576ZM314.873 101.778H288.068C287.851 101.778 287.744 101.643 287.744 101.372L287.825 44.3303C287.825 44.1142 287.933 44.0061 288.148 44.0061H314.791C315.008 44.0061 315.116 44.1412 315.116 44.4115V53.6955C315.116 53.9117 315.008 54.0198 314.791 54.0198H297.786V66.9931H314.791C315.008 66.9931 315.116 67.1012 315.116 67.3175L315.197 76.7231C315.197 76.9394 315.088 77.0474 314.873 77.0474H297.786V91.5613H314.873C315.088 91.5613 315.197 91.6965 315.197 91.9667V101.453C315.197 101.67 315.088 101.778 314.873 101.778ZM21.543 160.702H9.79878C9.62812 160.702 9.54279 160.595 9.54279 160.382L9.67078 115.3C9.67078 115.129 9.75612 115.043 9.9268 115.043H22.535C24.9884 115.043 27.2179 115.642 29.2232 116.838C31.186 118.034 32.7327 119.625 33.8634 121.612C34.994 123.577 35.5593 125.713 35.5593 128.02C35.5593 129.9 35.1327 131.651 34.2794 133.275C33.426 134.898 32.4126 136.212 31.2392 137.215C32.4979 138.475 33.4793 139.939 34.1833 141.605C34.8874 143.271 35.2394 145.023 35.2394 146.86C35.2394 149.402 34.6314 151.72 33.4153 153.813C32.178 155.906 30.5246 157.583 28.4552 158.843C26.3858 160.082 24.0817 160.702 21.543 160.702ZM22.535 122.829H17.5429V133.147H22.535C24.0498 133.147 25.2765 132.613 26.2152 131.544C27.1538 130.455 27.6231 129.28 27.6231 128.02C27.6231 126.632 27.1219 125.425 26.1191 124.399C25.1164 123.353 23.9218 122.829 22.535 122.829ZM21.543 141.092H17.5429L17.479 152.692H21.543C23.1218 152.692 24.4764 152.115 25.6071 150.962C26.7379 149.808 27.3032 148.44 27.3032 146.86C27.3032 145.28 26.7379 143.923 25.6071 142.79C24.4764 141.659 23.1218 141.092 21.543 141.092ZM37.7355 160.382L45.8636 115.3C45.9062 115.129 46.013 115.043 46.1836 115.043H55.6878C55.8584 115.043 55.9652 115.129 56.0078 115.3L63.816 160.382C63.8373 160.595 63.752 160.702 63.56 160.702H56.2958C56.0825 160.702 55.9652 160.595 55.9438 160.382L55.2399 155.575H46.3116L45.6076 160.382C45.5863 160.595 45.4796 160.702 45.2876 160.702H37.9915C37.8208 160.702 37.7355 160.595 37.7355 160.382ZM50.5677 130.135L47.6236 148.558H53.9278L51.2398 130.135L50.8557 127.7L50.5677 130.135ZM75.5923 160.702H68.1681C67.9975 160.702 67.9121 160.595 67.9121 160.382L68.0401 115.3C68.0401 115.129 68.1255 115.043 68.2961 115.043H81.5445C83.9125 115.043 86.0885 115.62 88.0725 116.774C90.0566 117.927 91.6354 119.476 92.8086 121.42C94.0034 123.363 94.6007 125.564 94.6007 128.02C94.6007 129.622 94.3554 131.075 93.8647 132.378C93.374 133.681 92.7981 134.781 92.1367 135.678C91.4967 136.575 90.91 137.237 90.3766 137.664C92.7447 140.291 93.9288 143.378 93.9288 146.924L93.9927 160.382C93.9927 160.595 93.886 160.702 93.6726 160.702H86.2486C86.0779 160.702 85.9926 160.638 85.9926 160.509V146.924C85.9926 145.344 85.4378 143.977 84.3285 142.822C83.2191 141.669 81.8538 141.092 80.2324 141.092H75.9123L75.8483 160.382C75.8483 160.595 75.763 160.702 75.5923 160.702ZM81.5445 122.894H75.9123V133.211H81.5445C82.8885 133.211 84.0832 132.709 85.1286 131.705C86.1952 130.701 86.7286 129.473 86.7286 128.02C86.7286 126.632 86.2165 125.435 85.1925 124.431C84.1685 123.406 82.9525 122.894 81.5445 122.894ZM178.155 161.343C175.786 161.343 173.653 160.755 171.755 159.581C169.834 158.405 168.288 156.825 167.114 154.839C165.962 152.852 165.386 150.63 165.386 148.174V127.379C165.386 124.987 165.973 122.808 167.146 120.843C168.299 118.856 169.845 117.276 171.786 116.101C173.728 114.905 175.851 114.307 178.155 114.307C180.565 114.307 182.741 114.883 184.683 116.037C186.624 117.211 188.161 118.782 189.291 120.747C190.443 122.712 191.019 124.923 191.019 127.379V130.391C191.019 130.562 190.912 130.647 190.699 130.647H183.339C183.168 130.647 183.082 130.562 183.082 130.391V127.892C183.082 126.226 182.613 124.848 181.675 123.759C180.736 122.669 179.562 122.125 178.155 122.125C176.896 122.125 175.776 122.648 174.795 123.694C173.814 124.741 173.323 125.969 173.323 127.379V148.174C173.323 149.605 173.803 150.844 174.763 151.89C175.722 152.916 176.854 153.429 178.155 153.429C179.562 153.429 180.736 152.927 181.675 151.922C182.613 150.898 183.082 149.648 183.082 148.174V144.938H178.507C178.271 144.938 178.155 144.831 178.155 144.617V137.28C178.155 137.067 178.271 136.959 178.507 136.959H190.762C190.934 136.959 191.019 137.067 191.019 137.28V148.174C191.019 150.63 190.443 152.852 189.291 154.839C188.118 156.825 186.571 158.405 184.651 159.581C182.731 160.755 180.565 161.343 178.155 161.343ZM203.339 160.702H195.916C195.744 160.702 195.659 160.595 195.659 160.382L195.787 115.3C195.787 115.129 195.873 115.043 196.043 115.043H209.291C211.659 115.043 213.836 115.62 215.819 116.774C217.804 117.927 219.382 119.476 220.555 121.42C221.751 123.363 222.347 125.564 222.347 128.02C222.347 129.622 222.103 131.075 221.612 132.378C221.121 133.681 220.544 134.781 219.884 135.678C219.243 136.575 218.657 137.237 218.124 137.664C220.492 140.291 221.676 143.378 221.676 146.924L221.74 160.382C221.74 160.595 221.633 160.702 221.419 160.702H213.996C213.825 160.702 213.739 160.638 213.739 160.509V146.924C213.739 145.344 213.184 143.977 212.075 142.822C210.967 141.669 209.601 141.092 207.98 141.092H203.66L203.596 160.382C203.596 160.595 203.51 160.702 203.339 160.702ZM209.291 122.894H203.66V133.211H209.291C210.635 133.211 211.831 132.709 212.875 131.705C213.943 130.701 214.475 129.473 214.475 128.02C214.475 126.632 213.964 125.435 212.939 124.431C211.915 123.406 210.699 122.894 209.291 122.894ZM235.02 160.702H227.596C227.383 160.702 227.276 160.595 227.276 160.382L227.34 115.3C227.34 115.129 227.425 115.043 227.596 115.043H234.956C235.127 115.043 235.211 115.129 235.211 115.3L235.276 160.382C235.276 160.595 235.19 160.702 235.02 160.702ZM262.476 160.702H241.292C241.122 160.702 241.036 160.595 241.036 160.382L241.1 115.364C241.1 115.15 241.206 115.043 241.42 115.043H248.716C248.93 115.043 249.036 115.15 249.036 115.364L248.972 152.628H262.476C262.69 152.628 262.796 152.734 262.796 152.948V160.382C262.796 160.595 262.69 160.702 262.476 160.702ZM288.526 160.702H267.341C267.17 160.702 267.084 160.595 267.084 160.382L267.148 115.364C267.148 115.15 267.255 115.043 267.469 115.043H274.765C274.978 115.043 275.085 115.15 275.085 115.364L275.021 152.628H288.526C288.738 152.628 288.845 152.734 288.845 152.948V160.382C288.845 160.595 288.738 160.702 288.526 160.702ZM314.573 160.702H293.389C293.219 160.702 293.133 160.595 293.133 160.382L293.197 115.3C293.197 115.129 293.283 115.043 293.453 115.043H314.509C314.68 115.043 314.766 115.15 314.766 115.364V122.701C314.766 122.872 314.68 122.958 314.509 122.958H301.07V133.211H314.509C314.68 133.211 314.766 133.296 314.766 133.467L314.83 140.901C314.83 141.071 314.745 141.156 314.573 141.156H301.07V152.628H314.573C314.745 152.628 314.83 152.734 314.83 152.948V160.446C314.83 160.616 314.745 160.702 314.573 160.702Z" fill="white"/>
<path d="M126.5 124.125H134.5V135.125H145.5V142.125H134.5V153.125H126.5V142.125H115.5V135.125H126.5V124.125Z" fill="white"/>
<path d="M11.6052 34.8187H8.68983C8.6193 34.8187 8.58011 34.7795 8.57228 34.701L5.72748 18.1404C5.71181 18.0776 5.73532 18.0463 5.79801 18.0463H8.50175C8.56444 18.0463 8.60363 18.0776 8.6193 18.1404L10.1592 29.0279L11.7462 18.1404C11.7619 18.0776 11.8089 18.0463 11.8873 18.0463H14.0621C14.1247 18.0463 14.1639 18.0776 14.1796 18.1404L15.743 29.0279L17.3066 18.1404C17.3222 18.0776 17.3614 18.0463 17.424 18.0463H20.1042C20.1826 18.0463 20.214 18.0776 20.1984 18.1404L17.33 34.701C17.3222 34.7324 17.2987 34.7599 17.2595 34.7834L17.2124 34.8187H14.2972C14.2501 34.8187 14.2109 34.7795 14.1796 34.701L12.9453 26.0499L11.7227 34.701C11.7149 34.7795 11.6757 34.8187 11.6052 34.8187ZM29.4851 34.8187H21.7031C21.6403 34.8187 21.6089 34.7795 21.6089 34.701L21.6325 18.1404C21.6325 18.0776 21.6639 18.0463 21.7265 18.0463H29.4615C29.5242 18.0463 29.5557 18.0855 29.5557 18.164V20.8594C29.5557 20.9221 29.5242 20.9535 29.4615 20.9535H24.5243V24.72H29.4615C29.5242 24.72 29.5557 24.7513 29.5557 24.8141L29.5791 27.5448C29.5791 27.6075 29.5478 27.639 29.4851 27.639H24.5243V31.8527H29.4851C29.5478 31.8527 29.5791 31.892 29.5791 31.9703V34.7246C29.5791 34.7874 29.5478 34.8187 29.4851 34.8187ZM39.5947 34.8187H31.8127C31.75 34.8187 31.7185 34.7795 31.7185 34.701L31.7421 18.164C31.7421 18.0855 31.7813 18.0463 31.8597 18.0463H34.5399C34.6182 18.0463 34.6574 18.0855 34.6574 18.164L34.6339 31.8527H39.5947C39.6731 31.8527 39.7122 31.892 39.7122 31.9703V34.701C39.7122 34.7795 39.6731 34.8187 39.5947 34.8187ZM45.7192 35.0542C44.8493 35.0542 44.0539 34.8344 43.3329 34.395C42.6197 33.9556 42.0515 33.3671 41.6284 32.6294C41.2131 31.8841 41.0053 31.0562 41.0053 30.1459L41.0289 22.6248C41.0289 21.7304 41.2326 20.9221 41.6401 20.2002C42.0477 19.4705 42.6079 18.8858 43.3211 18.4464C44.0421 17.9992 44.8416 17.7755 45.7192 17.7755C46.6127 17.7755 47.4081 17.9914 48.1056 18.4229C48.8109 18.8545 49.3713 19.439 49.7866 20.1767C50.2097 20.9064 50.4213 21.7225 50.4213 22.6248V23.7313C50.4213 23.7941 50.39 23.8254 50.3273 23.8254H47.6236C47.561 23.8254 47.5295 23.7941 47.5295 23.7313V22.6248C47.5295 22.0913 47.3571 21.6322 47.0123 21.2477C46.6675 20.8633 46.2364 20.671 45.7192 20.671C45.1472 20.671 44.7083 20.8671 44.4026 21.2595C44.097 21.6519 43.9442 22.107 43.9442 22.6248V30.1459C43.9442 30.7345 44.1166 31.217 44.4614 31.5937C44.8063 31.9625 45.2256 32.1469 45.7192 32.1469C46.2364 32.1469 46.6675 31.9428 47.0123 31.5349C47.3571 31.119 47.5295 30.656 47.5295 30.1459V29.0279C47.5295 28.965 47.561 28.9337 47.6236 28.9337H50.3509C50.4136 28.9337 50.4449 28.965 50.4449 29.0279V30.1459C50.4449 31.0484 50.2333 31.8723 49.8101 32.6177C49.379 33.3553 48.8109 33.9477 48.1056 34.395C47.4003 34.8344 46.6048 35.0542 45.7192 35.0542ZM56.6517 35.0542C55.7976 35.0542 55.0099 34.8344 54.2889 34.395C53.5757 33.9556 52.9998 33.3709 52.5609 32.6412C52.1299 31.9036 51.9144 31.0954 51.9144 30.2166L51.9378 22.5778C51.9378 21.6832 52.1534 20.8789 52.5843 20.1649C53.0075 19.4431 53.5797 18.8663 54.3006 18.4347C55.0217 17.9953 55.8053 17.7755 56.6517 17.7755C57.5295 17.7755 58.3171 17.9914 59.0145 18.4229C59.7199 18.8545 60.2842 19.4352 60.7074 20.1649C61.1383 20.8868 61.3539 21.6911 61.3539 22.5778L61.3773 30.2166C61.3773 31.0954 61.1657 31.8997 60.7426 32.6294C60.3116 33.3671 59.7394 33.9556 59.0263 34.395C58.3131 34.8344 57.5216 35.0542 56.6517 35.0542ZM56.6517 32.1469C57.1376 32.1469 57.5608 31.9507 57.9214 31.5584C58.2818 31.1582 58.4621 30.7109 58.4621 30.2166L58.4386 22.5778C58.4386 22.0442 58.2701 21.593 57.9331 21.2242C57.5961 20.8554 57.169 20.671 56.6517 20.671C56.158 20.671 55.7348 20.8515 55.3821 21.2124C55.0296 21.5734 54.8531 22.0285 54.8531 22.5778V30.2166C54.8531 30.7424 55.0296 31.1975 55.3821 31.5819C55.7348 31.9586 56.158 32.1469 56.6517 32.1469ZM66.0207 34.8187H63.2936C63.2308 34.8187 63.1995 34.7795 63.1995 34.701L63.2465 18.1404C63.2465 18.0776 63.2778 18.0463 63.3405 18.0463H66.2794C66.3421 18.0463 66.397 18.0776 66.4439 18.1404L68.6422 21.3183L70.8288 18.1404C70.8757 18.0776 70.9346 18.0463 71.0051 18.0463H73.9556C74.0262 18.0463 74.0614 18.0776 74.0614 18.1404L74.1085 34.701C74.1085 34.7795 74.0772 34.8187 74.0144 34.8187H71.2871C71.2245 34.8187 71.1931 34.7795 71.1931 34.701L71.1696 22.4012L68.6422 26.0735L66.1383 22.4012L66.1148 34.701C66.1148 34.7795 66.0835 34.8187 66.0207 34.8187ZM84.0065 34.8187H76.2244C76.1618 34.8187 76.1304 34.7795 76.1304 34.701L76.1539 18.1404C76.1539 18.0776 76.1852 18.0463 76.2479 18.0463H83.983C84.0457 18.0463 84.077 18.0855 84.077 18.164V20.8594C84.077 20.9221 84.0457 20.9535 83.983 20.9535H79.0457V24.72H83.983C84.0457 24.72 84.077 24.7513 84.077 24.8141L84.1005 27.5448C84.1005 27.6075 84.0692 27.639 84.0065 27.639H79.0457V31.8527H84.0065C84.0692 31.8527 84.1005 31.892 84.1005 31.9703V34.7246C84.1005 34.7874 84.0692 34.8187 84.0065 34.8187ZM97.6309 34.8187H94.9154C94.8449 34.8187 94.8096 34.7795 94.8096 34.701V20.9535H91.6828C91.6044 20.9535 91.5652 20.9143 91.5652 20.8358L91.5887 18.1404C91.5887 18.0776 91.6201 18.0463 91.6828 18.0463H100.828C100.915 18.0463 100.958 18.0776 100.958 18.1404V20.8358C100.958 20.9143 100.926 20.9535 100.864 20.9535H97.7016L97.725 34.701C97.725 34.7795 97.6937 34.8187 97.6309 34.8187ZM106.589 35.0542C105.734 35.0542 104.947 34.8344 104.226 34.395C103.513 33.9556 102.937 33.3709 102.498 32.6412C102.067 31.9036 101.851 31.0954 101.851 30.2166L101.875 22.5778C101.875 21.6832 102.09 20.8789 102.521 20.1649C102.944 19.4431 103.516 18.8663 104.238 18.4347C104.958 17.9953 105.742 17.7755 106.589 17.7755C107.466 17.7755 108.254 17.9914 108.951 18.4229C109.657 18.8545 110.221 19.4352 110.644 20.1649C111.075 20.8868 111.291 21.6911 111.291 22.5778L111.314 30.2166C111.314 31.0954 111.103 31.8997 110.679 32.6294C110.248 33.3671 109.676 33.9556 108.963 34.395C108.25 34.8344 107.458 35.0542 106.589 35.0542ZM106.589 32.1469C107.074 32.1469 107.498 31.9507 107.858 31.5584C108.219 31.1582 108.399 30.7109 108.399 30.2166L108.375 22.5778C108.375 22.0442 108.207 21.593 107.87 21.2242C107.533 20.8554 107.106 20.671 106.589 20.671C106.095 20.671 105.672 20.8515 105.319 21.2124C104.966 21.5734 104.79 22.0285 104.79 22.5778V30.2166C104.79 30.7424 104.966 31.1975 105.319 31.5819C105.672 31.9586 106.095 32.1469 106.589 32.1469Z" fill="url(#paint0_linear_1_285)"/>
<mask id="mask0_1_285" style="mask-type:luminance" maskUnits="userSpaceOnUse" x="44" y="179" width="236" height="42">
<path d="M279.4 179H44V220.515H279.4V179Z" fill="white"/>
</mask>
<g mask="url(#mask0_1_285)">
<path d="M246.785 196.874V179.142H256.193L255.338 181.564H249.587V186.593H255.31V189.017H249.587V194.451H256.216V196.874H246.785ZM243.698 181.564H238.859V196.874H236.024V181.564H230.921V179.14H244.47L243.698 181.564ZM213.722 196.874C211.316 196.874 209.604 196.252 208.509 195.173C207.203 193.912 206.801 191.998 206.801 190.14V179.045H209.58V190.009C209.58 191.245 209.928 192.453 210.703 193.289C211.367 194.016 212.386 194.449 213.77 194.449L218.054 194.457L218.052 179.045H220.855V196.875L213.722 196.874ZM224.941 179.142H227.749V196.874H224.941V179.142ZM264.363 197.234C261.932 197.234 260.277 196.425 259.154 195.698L260.33 193.573C261.218 194.191 262.602 194.893 264.26 194.893C265.704 194.893 267.385 194.242 267.385 192.63C267.385 189.911 263.139 189.377 261.001 186.983C260.277 186.172 259.799 185.176 259.799 183.805C259.799 181.224 261.771 179.069 265.331 179.069C267.199 179.069 268.592 179.553 269.499 180.042L269.471 182.675C268.267 181.946 266.909 181.436 265.465 181.436C263.94 181.436 262.685 182.081 262.685 183.482C262.685 186.983 270.385 186.87 270.385 192.309C270.385 195.294 267.761 197.234 264.363 197.234ZM197.972 197.234C195.542 197.234 193.882 196.425 192.761 195.698L193.938 193.573C194.819 194.191 196.208 194.893 197.865 194.893C199.307 194.893 200.995 194.242 200.995 192.63C200.995 189.911 196.743 189.377 194.607 186.983C193.882 186.172 193.404 185.176 193.404 183.805C193.404 181.224 195.38 179.069 198.936 179.069C200.805 179.069 202.193 179.553 203.105 180.042L203.078 182.675C201.873 181.946 200.512 181.436 199.066 181.436C197.542 181.436 196.288 182.081 196.288 183.482C196.288 186.983 203.986 186.87 203.986 192.309C203.986 195.294 201.366 197.234 197.972 197.234ZM104.507 179.197C106.917 179.197 108.631 179.818 109.725 180.9C111.04 182.167 111.441 184.082 111.441 185.942V197.051H108.654V186.071C108.654 184.829 108.306 183.619 107.53 182.786C106.863 182.057 105.843 181.626 104.452 181.626L100.167 181.614L100.171 197.051H97.3605V179.197H104.507ZM175.056 196.965V179.209H177.84V194.538H183.896L184.293 196.964L175.056 196.965ZM162.481 196.964V179.207H165.263V194.537H171.319L171.714 196.964H162.481ZM154.668 179.206H157.479V196.961H154.668V179.206ZM146.851 196.964V189.175H137.939V196.964H135.129V179.207H137.939V186.696H146.851V179.207H149.665V196.964H146.851ZM123.888 197.233C118.503 197.233 115.053 193.436 115.053 188.314C115.053 182.953 118.88 179.044 124.63 179.044C126.884 179.044 128.598 179.554 129.747 180.042L129.72 182.759C128.435 182.091 126.753 181.444 124.823 181.444C120.246 181.444 118.072 184.355 118.072 188.046C118.072 192.03 120.565 194.834 124.61 194.834C125.919 194.834 126.937 194.591 127.582 194.241V188.125H130.392V195.671C128.973 196.424 126.646 197.233 123.888 197.233ZM89.4671 179.207H92.277V196.964H89.4671V179.207ZM82.8835 196.966C80.1272 192.385 78.7613 189.961 78.0639 189.768H76.4271V196.966H73.6224V179.21H78.0133C82.4286 179.21 84.1125 181.446 84.1125 184.166C84.1125 186.592 82.5321 188.154 80.7933 188.856V188.88C81.5156 189.259 83.3923 192.413 86.1479 196.966H82.8835ZM78.0375 181.659H76.4271V187.561H78.0939C79.9118 187.561 81.2512 186.162 81.2512 184.458C81.2512 182.926 80.314 181.659 78.0375 181.659ZM63.1035 190.66H62.0601V196.965H59.2496V179.209H63.4493C67.2266 179.209 69.6612 181.203 69.6612 184.837C69.6612 187.508 67.8662 190.66 63.1035 190.66ZM63.1856 181.662H62.0601V188.37H63.2895C65.7009 188.37 66.7701 186.991 66.7701 184.922C66.7701 183.008 65.5655 181.662 63.1856 181.662ZM49.2147 197.235C46.7785 197.235 45.116 196.425 43.9934 195.695L45.1716 193.57C46.0522 194.185 47.4446 194.891 49.1077 194.891C50.5513 194.891 52.2372 194.242 52.2372 192.626C52.2372 189.905 47.9816 189.368 45.8392 186.969C45.1158 186.16 44.6376 185.163 44.6376 183.789C44.6376 181.203 46.6142 179.047 50.1755 179.047C52.051 179.047 53.4419 179.527 54.3487 180.015L54.324 182.654C53.1241 181.931 51.7583 181.418 50.314 181.418C48.7849 181.418 47.5255 182.064 47.5255 183.466C47.5255 186.969 55.2402 186.859 55.2402 192.306C55.2402 195.295 52.6149 197.237 49.2166 197.237" fill="url(#paint1_linear_1_285)"/>
<path d="M276.284 185.291C274.561 185.291 273.158 183.887 273.158 182.146C273.158 180.405 274.561 179 276.284 179C278.012 179 279.408 180.405 279.408 182.146C279.408 183.887 278.012 185.291 276.284 185.291ZM276.284 179.315C274.736 179.315 273.476 180.59 273.476 182.146C273.476 183.709 274.736 184.975 276.284 184.975C277.835 184.975 279.095 183.709 279.095 182.146C279.095 180.59 277.835 179.315 276.284 179.315ZM277.265 183.671C277.158 183.671 277.066 183.658 276.995 183.569L276.098 182.349H275.808V183.671H275.448V180.733H276.464C277.197 180.733 277.315 181.282 277.315 181.507C277.315 181.907 277.003 182.262 276.498 182.324L277.422 183.541C277.465 183.601 277.499 183.635 277.552 183.671H277.265ZM276.269 181.011H275.808V182.065H276.213C276.615 182.065 276.952 181.921 276.952 181.507C276.952 181.011 276.478 181.011 276.269 181.011Z" fill="white"/>
<path d="M198.687 211.719H195.247V210.018H204.047V211.719H200.607V220.239H198.687V211.719ZM186.638 211.719H183.198V210.018H191.996V211.719H188.556V220.239H186.638V211.719ZM175.408 218.692C175.906 218.692 176.358 218.594 176.764 218.4C177.168 218.206 177.515 217.943 177.8 217.611C178.083 217.279 178.301 216.893 178.454 216.454C178.606 216.014 178.681 215.556 178.681 215.075C178.681 214.585 178.606 214.121 178.454 213.687C178.301 213.254 178.083 212.873 177.8 212.545C177.515 212.218 177.168 211.961 176.764 211.772C176.358 211.584 175.906 211.489 175.408 211.489C174.901 211.489 174.446 211.584 174.046 211.772C173.645 211.961 173.303 212.218 173.019 212.545C172.734 212.873 172.516 213.254 172.365 213.687C172.213 214.121 172.135 214.585 172.135 215.075C172.135 215.556 172.213 216.014 172.365 216.454C172.516 216.893 172.734 217.279 173.019 217.611C173.303 217.943 173.645 218.206 174.046 218.4C174.446 218.594 174.901 218.692 175.408 218.692ZM175.408 220.515C174.668 220.515 173.977 220.375 173.339 220.093C172.698 219.813 172.142 219.427 171.664 218.936C171.187 218.446 170.811 217.874 170.537 217.22C170.263 216.567 170.126 215.866 170.126 215.12C170.126 214.374 170.263 213.675 170.537 213.021C170.811 212.367 171.186 211.798 171.658 211.313C172.129 210.827 172.685 210.444 173.331 210.163C173.976 209.882 174.668 209.741 175.408 209.741C176.149 209.741 176.839 209.882 177.48 210.163C178.119 210.444 178.677 210.827 179.154 211.313C179.631 211.798 180.008 212.367 180.282 213.021C180.553 213.675 180.691 214.374 180.691 215.12C180.691 215.866 180.553 216.567 180.282 217.22C180.008 217.874 179.631 218.446 179.154 218.936C178.677 219.427 178.119 219.813 177.48 220.093C176.839 220.375 176.149 220.515 175.408 220.515ZM163.585 210.018H165.503V220.239H163.585V210.018ZM154.657 214.616C155.144 214.616 155.522 214.471 155.79 214.186C156.06 213.899 156.195 213.552 156.195 213.144C156.195 212.705 156.052 212.346 155.768 212.071C155.483 211.795 155.113 211.657 154.657 211.657H152.645V214.616H154.657ZM150.802 210.018H154.642C155.281 210.018 155.824 210.116 156.27 210.309C156.717 210.502 157.078 210.751 157.35 211.052C157.625 211.353 157.825 211.683 157.952 212.04C158.079 212.398 158.142 212.739 158.142 213.066C158.142 213.71 158.003 214.281 157.725 214.776C157.445 215.27 157.016 215.667 156.437 215.964L158.783 220.239H156.622L154.566 216.208H152.645V220.239H150.803L150.802 210.018ZM142.342 214.614C142.828 214.614 143.206 214.471 143.477 214.186C143.744 213.899 143.879 213.551 143.879 213.142C143.879 212.705 143.737 212.346 143.454 212.071C143.169 211.795 142.798 211.656 142.342 211.656H140.328V214.614H142.342ZM138.486 210.018H142.328C142.966 210.018 143.51 210.115 143.955 210.309C144.401 210.502 144.762 210.751 145.036 211.051C145.31 211.352 145.51 211.683 145.637 212.04C145.764 212.398 145.828 212.739 145.828 213.066C145.828 213.71 145.689 214.279 145.409 214.775C145.13 215.27 144.702 215.667 144.123 215.963L146.467 220.239H144.306L142.251 216.208H140.328V220.239H138.486V210.018ZM130.903 216.054L129.563 212.086L128.206 216.054H130.903ZM128.634 210.017H130.613L134.465 220.239H132.333L131.45 217.649H127.675L126.793 220.239H124.782L128.634 210.017ZM110.812 210.017H112.594L115.647 214.843L118.655 210.017H120.435L120.922 220.239H119.051L118.717 213.158L116.043 217.327H115.144L112.456 213.266L112.122 220.239H110.325L110.812 210.017Z" fill="url(#paint2_linear_1_285)"/>
</g>
<defs>
<linearGradient id="paint0_linear_1_285" x1="58.85" y1="5.35675" x2="58.85" y2="49.5497" gradientUnits="userSpaceOnUse">
<stop stop-color="#BABABA"/>
<stop offset="0.510417" stop-color="white"/>
<stop offset="1" stop-color="#BABABA"/>
</linearGradient>
<linearGradient id="paint1_linear_1_285" x1="157.189" y1="179.044" x2="157.189" y2="197.237" gradientUnits="userSpaceOnUse">
<stop stop-color="#BABABA"/>
<stop offset="0.510417" stop-color="white"/>
<stop offset="1" stop-color="#BABABA"/>
</linearGradient>
<linearGradient id="paint2_linear_1_285" x1="157.186" y1="209.741" x2="157.186" y2="220.515" gradientUnits="userSpaceOnUse">
<stop stop-color="#BABABA"/>
<stop offset="0.510417" stop-color="white"/>
<stop offset="1" stop-color="#BABABA"/>
</linearGradient>
</defs>
</svg>
